<svg id="visual" viewBox="0 0 1920 1080" width="1920" height="1080" xmlns="http://www.w3.org/2000/svg" xmlns:xlink="http://www.w3.org/1999/xlink" version="1.1"><g stroke-width="1" stroke-linejoin="bevel"><path d="M1028.3 476.9L880.7 604.1L1076.3 596.1Z" fill="#3a2564" stroke="#3a2564"></path><path d="M1028.3 476.9L884.7 482.9L880.7 604.1Z" fill="#311d5a" stroke="#311d5a"></path><path d="M1077.3 783.4L1201.8 643.1L1076.3 596.1Z" fill="#5f478d" stroke="#5f478d"></path><path d="M1076.3 596.1L1229.8 430.9L1028.3 476.9Z" fill="#4c3678" stroke="#4c3678"></path><path d="M880.7 604.1L1077.3 783.4L1076.3 596.1Z" fill="#3a2564" stroke="#3a2564"></path><path d="M880.7 604.1L895.7 798.4L1077.3 783.4Z" fill="#3a2564" stroke="#3a2564"></path><path d="M1229.8 430.9L1077.3 330.6L1028.3 476.9Z" fill="#856bb9" stroke="#856bb9"></path><path d="M1028.3 476.9L846.7 305.6L884.7 482.9Z" fill="#685098" stroke="#685098"></path><path d="M1201.8 643.1L1229.8 430.9L1076.3 596.1Z" fill="#7b62ae" stroke="#7b62ae"></path><path d="M1077.3 330.6L846.7 305.6L1028.3 476.9Z" fill="#685098" stroke="#685098"></path><path d="M884.7 482.9L682.2 607.1L880.7 604.1Z" fill="#432d6e" stroke="#432d6e"></path><path d="M880.7 604.1L676.2 744.4L895.7 798.4Z" fill="#3a2564" stroke="#3a2564"></path><path d="M697.2 451.9L682.2 607.1L884.7 482.9Z" fill="#3a2564" stroke="#3a2564"></path><path d="M846.7 305.6L697.2 451.9L884.7 482.9Z" fill="#4c3678" stroke="#4c3678"></path><path d="M1077.3 783.4L1228.8 767.4L1201.8 643.1Z" fill="#7259a3" stroke="#7259a3"></path><path d="M1423.4 607.1L1398.4 444.9L1229.8 430.9Z" fill="#432d6e" stroke="#432d6e"></path><path d="M1229.8 430.9L1194.8 300.6L1077.3 330.6Z" fill="#3a2564" stroke="#3a2564"></path><path d="M1018.3 121.3L853.7 139.3L846.7 305.6Z" fill="#563e83" stroke="#563e83"></path><path d="M682.2 607.1L676.2 744.4L880.7 604.1Z" fill="#685098" stroke="#685098"></path><path d="M846.7 305.6L721.2 321.6L697.2 451.9Z" fill="#4c3678" stroke="#4c3678"></path><path d="M884.7 943.7L1065.3 937.7L895.7 798.4Z" fill="#3a2564" stroke="#3a2564"></path><path d="M895.7 798.4L1065.3 937.7L1077.3 783.4Z" fill="#4c3678" stroke="#4c3678"></path><path d="M1077.3 783.4L1247.8 940.7L1228.8 767.4Z" fill="#7259a3" stroke="#7259a3"></path><path d="M679.2 946.7L884.7 943.7L895.7 798.4Z" fill="#5f478d" stroke="#5f478d"></path><path d="M682.2 607.1L555.6 588.1L676.2 744.4Z" fill="#856bb9" stroke="#856bb9"></path><path d="M552.6 468.9L555.6 588.1L682.2 607.1Z" fill="#432d6e" stroke="#432d6e"></path><path d="M552.6 468.9L682.2 607.1L697.2 451.9Z" fill="#4c3678" stroke="#4c3678"></path><path d="M721.2 321.6L552.6 468.9L697.2 451.9Z" fill="#856bb9" stroke="#856bb9"></path><path d="M1423.4 607.1L1229.8 430.9L1201.8 643.1Z" fill="#4c3678" stroke="#4c3678"></path><path d="M1229.8 430.9L1385.4 289.6L1194.8 300.6Z" fill="#432d6e" stroke="#432d6e"></path><path d="M846.7 305.6L694.2 147.3L721.2 321.6Z" fill="#4c3678" stroke="#4c3678"></path><path d="M721.2 321.6L522.6 292.6L552.6 468.9Z" fill="#7259a3" stroke="#7259a3"></path><path d="M1018.3 121.3L846.7 305.6L1077.3 330.6Z" fill="#7259a3" stroke="#7259a3"></path><path d="M1194.8 174.3L1077.3 330.6L1194.8 300.6Z" fill="#8f74c4" stroke="#8f74c4"></path><path d="M1194.8 174.3L1018.3 121.3L1077.3 330.6Z" fill="#5f478d" stroke="#5f478d"></path><path d="M1415.4 791.4L1423.4 607.1L1228.8 767.4Z" fill="#7b62ae" stroke="#7b62ae"></path><path d="M1228.8 767.4L1423.4 607.1L1201.8 643.1Z" fill="#3a2564" stroke="#3a2564"></path><path d="M1385.4 289.6L1194.8 174.3L1194.8 300.6Z" fill="#563e83" stroke="#563e83"></path><path d="M1214.8 1080L1247.8 940.7L1065.3 937.7Z" fill="#311d5a" stroke="#311d5a"></path><path d="M1065.3 937.7L1247.8 940.7L1077.3 783.4Z" fill="#685098" stroke="#685098"></path><path d="M547.6 797.4L679.2 946.7L676.2 744.4Z" fill="#7b62ae" stroke="#7b62ae"></path><path d="M676.2 744.4L679.2 946.7L895.7 798.4Z" fill="#3a2564" stroke="#3a2564"></path><path d="M884.7 943.7L1058.3 1080L1065.3 937.7Z" fill="#311d5a" stroke="#311d5a"></path><path d="M528.6 912.7L547.6 797.4L353.1 754.4Z" fill="#311d5a" stroke="#311d5a"></path><path d="M555.6 588.1L547.6 797.4L676.2 744.4Z" fill="#4c3678" stroke="#4c3678"></path><path d="M1390.4 926.7L1415.4 791.4L1228.8 767.4Z" fill="#7259a3" stroke="#7259a3"></path><path d="M1398.4 444.9L1385.4 289.6L1229.8 430.9Z" fill="#8f74c4" stroke="#8f74c4"></path><path d="M1582.9 302.6L1385.4 289.6L1398.4 444.9Z" fill="#856bb9" stroke="#856bb9"></path><path d="M842.7 0L694.2 147.3L853.7 139.3Z" fill="#432d6e" stroke="#432d6e"></path><path d="M853.7 139.3L694.2 147.3L846.7 305.6Z" fill="#5f478d" stroke="#5f478d"></path><path d="M873.7 1080L1058.3 1080L884.7 943.7Z" fill="#3a2564" stroke="#3a2564"></path><path d="M729.2 1080L873.7 1080L884.7 943.7Z" fill="#8f74c4" stroke="#8f74c4"></path><path d="M694.2 147.3L522.6 292.6L721.2 321.6Z" fill="#8f74c4" stroke="#8f74c4"></path><path d="M379.1 471.9L377.1 627.1L555.6 588.1Z" fill="#432d6e" stroke="#432d6e"></path><path d="M1380.4 1080L1390.4 926.7L1247.8 940.7Z" fill="#432d6e" stroke="#432d6e"></path><path d="M1247.8 940.7L1390.4 926.7L1228.8 767.4Z" fill="#311d5a" stroke="#311d5a"></path><path d="M1058.3 1080L1214.8 1080L1065.3 937.7Z" fill="#3a2564" stroke="#3a2564"></path><path d="M547.6 797.4L528.6 912.7L679.2 946.7Z" fill="#7b62ae" stroke="#7b62ae"></path><path d="M679.2 946.7L729.2 1080L884.7 943.7Z" fill="#5f478d" stroke="#5f478d"></path><path d="M377.1 627.1L547.6 797.4L555.6 588.1Z" fill="#7259a3" stroke="#7259a3"></path><path d="M1415.4 791.4L1539.9 645.1L1423.4 607.1Z" fill="#432d6e" stroke="#432d6e"></path><path d="M1423.4 607.1L1574.9 454.9L1398.4 444.9Z" fill="#5f478d" stroke="#5f478d"></path><path d="M1556.9 759.4L1539.9 645.1L1415.4 791.4Z" fill="#432d6e" stroke="#432d6e"></path><path d="M544.6 1080L729.2 1080L679.2 946.7Z" fill="#7259a3" stroke="#7259a3"></path><path d="M1194.8 174.3L1062.3 0L1018.3 121.3Z" fill="#856bb9" stroke="#856bb9"></path><path d="M1018.3 121.3L842.7 0L853.7 139.3Z" fill="#685098" stroke="#685098"></path><path d="M1240.8 0L1062.3 0L1194.8 174.3Z" fill="#856bb9" stroke="#856bb9"></path><path d="M1582.9 302.6L1388.4 164.3L1385.4 289.6Z" fill="#7259a3" stroke="#7259a3"></path><path d="M1385.4 289.6L1388.4 164.3L1194.8 174.3Z" fill="#311d5a" stroke="#311d5a"></path><path d="M1062.3 0L842.7 0L1018.3 121.3Z" fill="#3a2564" stroke="#3a2564"></path><path d="M694.2 147.3L530.6 145.3L522.6 292.6Z" fill="#5f478d" stroke="#5f478d"></path><path d="M379.1 471.9L555.6 588.1L552.6 468.9Z" fill="#856bb9" stroke="#856bb9"></path><path d="M522.6 292.6L379.1 471.9L552.6 468.9Z" fill="#311d5a" stroke="#311d5a"></path><path d="M1539.9 645.1L1574.9 454.9L1423.4 607.1Z" fill="#563e83" stroke="#563e83"></path><path d="M1563.9 929.7L1556.9 759.4L1415.4 791.4Z" fill="#563e83" stroke="#563e83"></path><path d="M1539.9 645.1L1756.5 649.1L1574.9 454.9Z" fill="#8f74c4" stroke="#8f74c4"></path><path d="M549.6 0L530.6 145.3L694.2 147.3Z" fill="#7259a3" stroke="#7259a3"></path><path d="M522.6 292.6L321.1 285.6L379.1 471.9Z" fill="#7b62ae" stroke="#7b62ae"></path><path d="M1388.4 164.3L1240.8 0L1194.8 174.3Z" fill="#7259a3" stroke="#7259a3"></path><path d="M842.7 0L692.2 0L694.2 147.3Z" fill="#4c3678" stroke="#4c3678"></path><path d="M204.5 642.1L353.1 754.4L377.1 627.1Z" fill="#3a2564" stroke="#3a2564"></path><path d="M377.1 627.1L353.1 754.4L547.6 797.4Z" fill="#7259a3" stroke="#7259a3"></path><path d="M1214.8 1080L1380.4 1080L1247.8 940.7Z" fill="#7259a3" stroke="#7259a3"></path><path d="M1390.4 926.7L1563.9 929.7L1415.4 791.4Z" fill="#311d5a" stroke="#311d5a"></path><path d="M1574.9 454.9L1582.9 302.6L1398.4 444.9Z" fill="#4c3678" stroke="#4c3678"></path><path d="M1388.4 164.3L1378.4 0L1240.8 0Z" fill="#311d5a" stroke="#311d5a"></path><path d="M356.1 957.7L544.6 1080L528.6 912.7Z" fill="#7259a3" stroke="#7259a3"></path><path d="M528.6 912.7L544.6 1080L679.2 946.7Z" fill="#311d5a" stroke="#311d5a"></path><path d="M1550.9 1080L1563.9 929.7L1390.4 926.7Z" fill="#4c3678" stroke="#4c3678"></path><path d="M1556.9 759.4L1716.5 764.4L1539.9 645.1Z" fill="#5f478d" stroke="#5f478d"></path><path d="M1574.9 454.9L1742.5 295.6L1582.9 302.6Z" fill="#7259a3" stroke="#7259a3"></path><path d="M1544.9 0L1378.4 0L1388.4 164.3Z" fill="#563e83" stroke="#563e83"></path><path d="M692.2 0L549.6 0L694.2 147.3Z" fill="#7259a3" stroke="#7259a3"></path><path d="M338.1 157.3L321.1 285.6L522.6 292.6Z" fill="#432d6e" stroke="#432d6e"></path><path d="M338.1 157.3L522.6 292.6L530.6 145.3Z" fill="#856bb9" stroke="#856bb9"></path><path d="M379.1 471.9L204.5 642.1L377.1 627.1Z" fill="#432d6e" stroke="#432d6e"></path><path d="M186.5 906.7L356.1 957.7L353.1 754.4Z" fill="#3a2564" stroke="#3a2564"></path><path d="M353.1 754.4L356.1 957.7L528.6 912.7Z" fill="#4c3678" stroke="#4c3678"></path><path d="M1582.9 302.6L1577.9 143.3L1388.4 164.3Z" fill="#685098" stroke="#685098"></path><path d="M358.1 0L338.1 157.3L530.6 145.3Z" fill="#3a2564" stroke="#3a2564"></path><path d="M1563.9 929.7L1716.5 764.4L1556.9 759.4Z" fill="#311d5a" stroke="#311d5a"></path><path d="M1582.9 302.6L1724.5 182.3L1577.9 143.3Z" fill="#5f478d" stroke="#5f478d"></path><path d="M1380.4 1080L1550.9 1080L1390.4 926.7Z" fill="#7b62ae" stroke="#7b62ae"></path><path d="M1563.9 929.7L1734.5 938.7L1716.5 764.4Z" fill="#8f74c4" stroke="#8f74c4"></path><path d="M172.5 465.9L204.5 642.1L379.1 471.9Z" fill="#311d5a" stroke="#311d5a"></path><path d="M172.5 465.9L379.1 471.9L321.1 285.6Z" fill="#4c3678" stroke="#4c3678"></path><path d="M1716.5 764.4L1756.5 649.1L1539.9 645.1Z" fill="#432d6e" stroke="#432d6e"></path><path d="M1756.5 649.1L1765.5 489.9L1574.9 454.9Z" fill="#4c3678" stroke="#4c3678"></path><path d="M204.5 642.1L199.5 749.4L353.1 754.4Z" fill="#3a2564" stroke="#3a2564"></path><path d="M1767.5 0L1544.9 0L1577.9 143.3Z" fill="#5f478d" stroke="#5f478d"></path><path d="M1577.9 143.3L1544.9 0L1388.4 164.3Z" fill="#563e83" stroke="#563e83"></path><path d="M173.5 277.6L172.5 465.9L321.1 285.6Z" fill="#7b62ae" stroke="#7b62ae"></path><path d="M204.5 642.1L0 603.1L199.5 749.4Z" fill="#432d6e" stroke="#432d6e"></path><path d="M356.1 957.7L348.1 1080L544.6 1080Z" fill="#563e83" stroke="#563e83"></path><path d="M174.5 1080L348.1 1080L356.1 957.7Z" fill="#8f74c4" stroke="#8f74c4"></path><path d="M1765.5 489.9L1742.5 295.6L1574.9 454.9Z" fill="#8f74c4" stroke="#8f74c4"></path><path d="M549.6 0L358.1 0L530.6 145.3Z" fill="#856bb9" stroke="#856bb9"></path><path d="M206.5 144.3L173.5 277.6L321.1 285.6Z" fill="#8f74c4" stroke="#8f74c4"></path><path d="M1742.5 295.6L1724.5 182.3L1582.9 302.6Z" fill="#3a2564" stroke="#3a2564"></path><path d="M1920 798.4L1920 606.1L1756.5 649.1Z" fill="#7b62ae" stroke="#7b62ae"></path><path d="M1736.5 1080L1734.5 938.7L1563.9 929.7Z" fill="#311d5a" stroke="#311d5a"></path><path d="M206.5 144.3L321.1 285.6L338.1 157.3Z" fill="#7b62ae" stroke="#7b62ae"></path><path d="M0 793.4L186.5 906.7L199.5 749.4Z" fill="#7b62ae" stroke="#7b62ae"></path><path d="M199.5 749.4L186.5 906.7L353.1 754.4Z" fill="#563e83" stroke="#563e83"></path><path d="M358.1 0L206.5 144.3L338.1 157.3Z" fill="#3a2564" stroke="#3a2564"></path><path d="M1550.9 1080L1736.5 1080L1563.9 929.7Z" fill="#563e83" stroke="#563e83"></path><path d="M1920 798.4L1756.5 649.1L1716.5 764.4Z" fill="#7259a3" stroke="#7259a3"></path><path d="M1756.5 649.1L1920 606.1L1765.5 489.9Z" fill="#563e83" stroke="#563e83"></path><path d="M1920 798.4L1716.5 764.4L1734.5 938.7Z" fill="#432d6e" stroke="#432d6e"></path><path d="M1765.5 489.9L1920 300.6L1742.5 295.6Z" fill="#8f74c4" stroke="#8f74c4"></path><path d="M1742.5 295.6L1920 172.3L1724.5 182.3Z" fill="#563e83" stroke="#563e83"></path><path d="M1920 606.1L1920 491.9L1765.5 489.9Z" fill="#3a2564" stroke="#3a2564"></path><path d="M0 936.7L174.5 1080L186.5 906.7Z" fill="#3a2564" stroke="#3a2564"></path><path d="M186.5 906.7L174.5 1080L356.1 957.7Z" fill="#3a2564" stroke="#3a2564"></path><path d="M1920 927.7L1920 798.4L1734.5 938.7Z" fill="#4c3678" stroke="#4c3678"></path><path d="M1724.5 182.3L1767.5 0L1577.9 143.3Z" fill="#7259a3" stroke="#7259a3"></path><path d="M1920 172.3L1767.5 0L1724.5 182.3Z" fill="#3a2564" stroke="#3a2564"></path><path d="M172.5 465.9L0 603.1L204.5 642.1Z" fill="#685098" stroke="#685098"></path><path d="M0 487.9L0 603.1L172.5 465.9Z" fill="#432d6e" stroke="#432d6e"></path><path d="M0 487.9L172.5 465.9L0 294.6Z" fill="#856bb9" stroke="#856bb9"></path><path d="M1920 491.9L1920 300.6L1765.5 489.9Z" fill="#432d6e" stroke="#432d6e"></path><path d="M0 294.6L172.5 465.9L173.5 277.6Z" fill="#432d6e" stroke="#432d6e"></path><path d="M358.1 0L172.5 0L206.5 144.3Z" fill="#432d6e" stroke="#432d6e"></path><path d="M0 124.3L0 294.6L173.5 277.6Z" fill="#685098" stroke="#685098"></path><path d="M0 603.1L0 793.4L199.5 749.4Z" fill="#7b62ae" stroke="#7b62ae"></path><path d="M1920 1080L1920 927.7L1734.5 938.7Z" fill="#8f74c4" stroke="#8f74c4"></path><path d="M0 124.3L173.5 277.6L206.5 144.3Z" fill="#311d5a" stroke="#311d5a"></path><path d="M1920 300.6L1920 172.3L1742.5 295.6Z" fill="#8f74c4" stroke="#8f74c4"></path><path d="M0 793.4L0 936.7L186.5 906.7Z" fill="#3a2564" stroke="#3a2564"></path><path d="M172.5 0L0 124.3L206.5 144.3Z" fill="#8f74c4" stroke="#8f74c4"></path><path d="M1736.5 1080L1920 1080L1734.5 938.7Z" fill="#563e83" stroke="#563e83"></path><path d="M1920 172.3L1920 0L1767.5 0Z" fill="#7259a3" stroke="#7259a3"></path><path d="M0 936.7L0 1080L174.5 1080Z" fill="#8f74c4" stroke="#8f74c4"></path><path d="M172.5 0L0 0L0 124.3Z" fill="#5f478d" stroke="#5f478d"></path></g></svg>