<svg xmlns="http://www.w3.org/2000/svg" xmlns:xlink="http://www.w3.org/1999/xlink" width="1920" zoomAndPan="magnify" viewBox="0 0 1440 809.999993" height="1080" preserveAspectRatio="xMidYMid meet" version="1.0"><defs><g/><clipPath id="e103353c5b"><path d="M 1134 192 L 1225 192 L 1225 287 L 1134 287 Z M 1134 192 " clip-rule="nonzero"/></clipPath><clipPath id="c71951c92d"><path d="M 1121.03125 215.574219 L 1211.835938 184.898438 L 1238.402344 263.542969 L 1147.597656 294.21875 Z M 1121.03125 215.574219 " clip-rule="nonzero"/></clipPath><clipPath id="94038cb62a"><path d="M 1121.03125 215.574219 L 1211.835938 184.898438 L 1238.402344 263.542969 L 1147.597656 294.21875 Z M 1121.03125 215.574219 " clip-rule="nonzero"/></clipPath><clipPath id="b6eb84ed6d"><path d="M 1134 192 L 1226 192 L 1226 287 L 1134 287 Z M 1134 192 " clip-rule="nonzero"/></clipPath><clipPath id="e713704c20"><path d="M 1120.667969 215.695312 L 1212.285156 184.746094 L 1238.851562 263.390625 L 1147.234375 294.339844 Z M 1120.667969 215.695312 " clip-rule="nonzero"/></clipPath><clipPath id="cb0f4a15a9"><path d="M 1120.667969 215.695312 L 1212.285156 184.746094 L 1238.851562 263.390625 L 1147.234375 294.339844 Z M 1120.667969 215.695312 " clip-rule="nonzero"/></clipPath><clipPath id="0ab62e2667"><path d="M 1117 265 L 1209 265 L 1209 360 L 1117 360 Z M 1117 265 " clip-rule="nonzero"/></clipPath><clipPath id="7c3ad72126"><path d="M 1104.441406 288.332031 L 1195.25 257.65625 L 1221.8125 336.300781 L 1131.007812 366.976562 Z M 1104.441406 288.332031 " clip-rule="nonzero"/></clipPath><clipPath id="e8a55c4101"><path d="M 1104.441406 288.332031 L 1195.25 257.65625 L 1221.8125 336.300781 L 1131.007812 366.976562 Z M 1104.441406 288.332031 " clip-rule="nonzero"/></clipPath><clipPath id="9fce0a6a42"><path d="M 1117 265 L 1209 265 L 1209 360 L 1117 360 Z M 1117 265 " clip-rule="nonzero"/></clipPath><clipPath id="de490aaff9"><path d="M 1104.078125 288.453125 L 1195.695312 257.503906 L 1222.261719 336.148438 L 1130.644531 367.097656 Z M 1104.078125 288.453125 " clip-rule="nonzero"/></clipPath><clipPath id="9267dd2dd5"><path d="M 1104.078125 288.453125 L 1195.695312 257.503906 L 1222.261719 336.148438 L 1130.644531 367.097656 Z M 1104.078125 288.453125 " clip-rule="nonzero"/></clipPath><clipPath id="16c698906a"><path d="M 1108 334 L 1199 334 L 1199 429 L 1108 429 Z M 1108 334 " clip-rule="nonzero"/></clipPath><clipPath id="ba5e6a1199"><path d="M 1095.164062 357.792969 L 1185.972656 327.121094 L 1212.535156 405.765625 L 1121.730469 436.4375 Z M 1095.164062 357.792969 " clip-rule="nonzero"/></clipPath><clipPath id="3e50ab9bd7"><path d="M 1095.164062 357.792969 L 1185.972656 327.121094 L 1212.535156 405.765625 L 1121.730469 436.4375 Z M 1095.164062 357.792969 " clip-rule="nonzero"/></clipPath><clipPath id="a6a69570a6"><path d="M 1108 334 L 1200 334 L 1200 430 L 1108 430 Z M 1108 334 " clip-rule="nonzero"/></clipPath><clipPath id="f7babe0517"><path d="M 1094.800781 357.917969 L 1186.417969 326.96875 L 1212.984375 405.613281 L 1121.367188 436.5625 Z M 1094.800781 357.917969 " clip-rule="nonzero"/></clipPath><clipPath id="f729e38cdb"><path d="M 1094.800781 357.917969 L 1186.417969 326.96875 L 1212.984375 405.613281 L 1121.367188 436.5625 Z M 1094.800781 357.917969 " clip-rule="nonzero"/></clipPath><clipPath id="1268e51f60"><path d="M 1055 286 L 1146 286 L 1146 381 L 1055 381 Z M 1055 286 " clip-rule="nonzero"/></clipPath><clipPath id="a314af6f05"><path d="M 1041.886719 309.460938 L 1132.691406 278.789062 L 1159.257812 357.433594 L 1068.449219 388.105469 Z M 1041.886719 309.460938 " clip-rule="nonzero"/></clipPath><clipPath id="8f63d42f7d"><path d="M 1041.886719 309.460938 L 1132.691406 278.789062 L 1159.257812 357.433594 L 1068.449219 388.105469 Z M 1041.886719 309.460938 " clip-rule="nonzero"/></clipPath><clipPath id="b376e9bacf"><path d="M 1054 286 L 1147 286 L 1147 381 L 1054 381 Z M 1054 286 " clip-rule="nonzero"/></clipPath><clipPath id="0965ed0b2a"><path d="M 1041.519531 309.585938 L 1133.136719 278.636719 L 1159.703125 357.28125 L 1068.085938 388.230469 Z M 1041.519531 309.585938 " clip-rule="nonzero"/></clipPath><clipPath id="c793d1cee7"><path d="M 1041.519531 309.585938 L 1133.136719 278.636719 L 1159.703125 357.28125 L 1068.085938 388.230469 Z M 1041.519531 309.585938 " clip-rule="nonzero"/></clipPath><clipPath id="78c909523e"><path d="M 1010 228 L 1101 228 L 1101 322 L 1010 322 Z M 1010 228 " clip-rule="nonzero"/></clipPath><clipPath id="988cf52355"><path d="M 997.21875 251 L 1088.023438 220.324219 L 1114.589844 298.96875 L 1023.785156 329.644531 Z M 997.21875 251 " clip-rule="nonzero"/></clipPath><clipPath id="de4b23dd93"><path d="M 997.21875 251 L 1088.023438 220.324219 L 1114.589844 298.96875 L 1023.785156 329.644531 Z M 997.21875 251 " clip-rule="nonzero"/></clipPath><clipPath id="77779a720a"><path d="M 1010 228 L 1102 228 L 1102 323 L 1010 323 Z M 1010 228 " clip-rule="nonzero"/></clipPath><clipPath id="37febffe1d"><path d="M 996.855469 251.121094 L 1088.472656 220.171875 L 1115.039062 298.820312 L 1023.421875 329.765625 Z M 996.855469 251.121094 " clip-rule="nonzero"/></clipPath><clipPath id="8209b04127"><path d="M 996.855469 251.121094 L 1088.472656 220.171875 L 1115.039062 298.820312 L 1023.421875 329.765625 Z M 996.855469 251.121094 " clip-rule="nonzero"/></clipPath><clipPath id="f78c95e6e1"><path d="M 1076 212 L 1167 212 L 1167 306 L 1076 306 Z M 1076 212 " clip-rule="nonzero"/></clipPath><clipPath id="8ea9c44ad1"><path d="M 1062.890625 235.210938 L 1153.695312 204.539062 L 1180.261719 283.183594 L 1089.453125 313.859375 Z M 1062.890625 235.210938 " clip-rule="nonzero"/></clipPath><clipPath id="803a33fb5d"><path d="M 1062.890625 235.210938 L 1153.695312 204.539062 L 1180.261719 283.183594 L 1089.453125 313.859375 Z M 1062.890625 235.210938 " clip-rule="nonzero"/></clipPath><clipPath id="18d980d717"><path d="M 1075 212 L 1168 212 L 1168 307 L 1075 307 Z M 1075 212 " clip-rule="nonzero"/></clipPath><clipPath id="9820ec0aa0"><path d="M 1062.523438 235.335938 L 1154.140625 204.386719 L 1180.707031 283.03125 L 1089.089844 313.980469 Z M 1062.523438 235.335938 " clip-rule="nonzero"/></clipPath><clipPath id="47ccb534e1"><path d="M 1062.523438 235.335938 L 1154.140625 204.386719 L 1180.707031 283.03125 L 1089.089844 313.980469 Z M 1062.523438 235.335938 " clip-rule="nonzero"/></clipPath><clipPath id="94658fd560"><path d="M 968 111 L 1250 111 L 1250 283 L 968 283 Z M 968 111 " clip-rule="nonzero"/></clipPath><clipPath id="d5faf5fc70"><path d="M 933.527344 172.742188 L 1212.433594 78.527344 L 1249.40625 187.984375 L 970.5 282.195312 Z M 933.527344 172.742188 " clip-rule="nonzero"/></clipPath><clipPath id="27cdca0bad"><path d="M 933.527344 172.742188 L 1212.433594 78.527344 L 1249.40625 187.984375 L 970.5 282.195312 Z M 933.527344 172.742188 " clip-rule="nonzero"/></clipPath><clipPath id="fe88e8c61e"><path d="M 933.527344 172.742188 L 1212.433594 78.527344 L 1343.890625 467.699219 L 1064.988281 561.910156 Z M 933.527344 172.742188 " clip-rule="nonzero"/></clipPath><clipPath id="317733c803"><path d="M 175 410 L 312 410 L 312 547 L 175 547 Z M 175 410 " clip-rule="nonzero"/></clipPath><clipPath id="447124b231"><path d="M 146.238281 513.328125 L 278.15625 381.410156 L 353.796875 457.050781 L 221.878906 588.96875 Z M 146.238281 513.328125 " clip-rule="nonzero"/></clipPath><clipPath id="51025b0c07"><path d="M 146.238281 513.328125 L 278.15625 381.410156 L 373.765625 477.019531 L 241.847656 608.9375 Z M 146.238281 513.328125 " clip-rule="nonzero"/></clipPath><clipPath id="5128641211"><path d="M 212 447 L 312 447 L 312 547 L 212 547 Z M 212 447 " clip-rule="nonzero"/></clipPath><clipPath id="c08bf17cb6"><path d="M 146.238281 513.328125 L 278.15625 381.410156 L 353.796875 457.050781 L 221.878906 588.96875 Z M 146.238281 513.328125 " clip-rule="nonzero"/></clipPath><clipPath id="c5a5d8cf99"><path d="M 146.238281 513.328125 L 278.15625 381.410156 L 373.765625 477.019531 L 241.847656 608.9375 Z M 146.238281 513.328125 " clip-rule="nonzero"/></clipPath><clipPath id="5b20f525f9"><path d="M 247 482 L 312 482 L 312 548 L 247 548 Z M 247 482 " clip-rule="nonzero"/></clipPath><clipPath id="0a60a7bdc7"><path d="M 146.238281 513.328125 L 278.15625 381.410156 L 353.796875 457.050781 L 221.878906 588.96875 Z M 146.238281 513.328125 " clip-rule="nonzero"/></clipPath><clipPath id="fa79671e7a"><path d="M 146.238281 513.328125 L 278.15625 381.410156 L 373.765625 477.019531 L 241.847656 608.9375 Z M 146.238281 513.328125 " clip-rule="nonzero"/></clipPath><clipPath id="5a71db71a5"><path d="M 283.808594 499 L 461.8125 499 L 461.8125 628.941406 L 283.808594 628.941406 Z M 283.808594 499 " clip-rule="nonzero"/></clipPath><clipPath id="c32995e6e6"><path d="M 279.632812 490.460938 L 465.335938 490.460938 L 465.335938 636.796875 L 279.632812 636.796875 Z M 279.632812 490.460938 " clip-rule="nonzero"/></clipPath><clipPath id="d774c9e1a4"><path d="M 129 7.792969 L 1311 7.792969 L 1311 801.957031 L 129 801.957031 Z M 129 7.792969 " clip-rule="nonzero"/></clipPath></defs><g fill="#000000" fill-opacity="1"><g transform="translate(133.304688, 381.292585)"><g><path d="M 130.421875 3.4375 C 108.398438 3.4375 89.53125 -1.722656 73.8125 -12.046875 C 58.101562 -22.367188 46.117188 -36.707031 37.859375 -55.0625 C 29.597656 -73.414062 25.46875 -94.640625 25.46875 -118.734375 C 25.46875 -143.503906 29.425781 -165.351562 37.34375 -184.28125 C 45.257812 -203.207031 57.015625 -217.945312 72.609375 -228.5 C 88.210938 -239.0625 107.484375 -244.34375 130.421875 -244.34375 C 151.992188 -244.34375 169.945312 -240.097656 184.28125 -231.609375 C 198.625 -223.117188 209.46875 -211.070312 216.8125 -195.46875 L 223.6875 -240.890625 L 236.765625 -240.890625 L 236.765625 -167.9375 L 212.328125 -167.9375 C 207.515625 -187.207031 198.453125 -202.632812 185.140625 -214.21875 C 171.835938 -225.8125 154.863281 -231.609375 134.21875 -231.609375 C 115.632812 -231.609375 100.03125 -226.960938 87.40625 -217.671875 C 74.789062 -208.378906 65.328125 -195.414062 59.015625 -178.78125 C 52.710938 -162.144531 49.5625 -142.816406 49.5625 -120.796875 C 49.5625 -98.078125 52.828125 -78.398438 59.359375 -61.765625 C 65.898438 -45.140625 75.648438 -32.296875 88.609375 -23.234375 C 101.578125 -14.171875 117.46875 -9.640625 136.28125 -9.640625 C 153.945312 -9.640625 168.398438 -13.25 179.640625 -20.46875 C 190.878906 -27.695312 199.132812 -37.617188 204.40625 -50.234375 C 209.6875 -62.859375 212.328125 -77.203125 212.328125 -93.265625 L 212.328125 -105.3125 C 212.328125 -109.664062 210.265625 -111.84375 206.140625 -111.84375 L 149.359375 -111.84375 L 149.359375 -124.921875 L 236.421875 -124.921875 L 236.421875 -19.265625 C 236.421875 -15.140625 238.601562 -13.078125 242.96875 -13.078125 L 258.796875 -13.078125 L 258.796875 0 L 212.328125 0 L 212.328125 -47.484375 C 206.597656 -31.660156 197.019531 -19.21875 183.59375 -10.15625 C 170.175781 -1.09375 152.453125 3.4375 130.421875 3.4375 Z M 130.421875 3.4375 "/></g></g></g><g fill="#000000" fill-opacity="1"><g transform="translate(360.438835, 381.292585)"><g><path d="M 26.15625 0 L 26.15625 -11.359375 L 42.328125 -11.359375 C 46.460938 -11.359375 48.53125 -13.421875 48.53125 -17.546875 L 48.53125 -154.515625 C 48.53125 -158.878906 46.460938 -161.0625 42.328125 -161.0625 L 26.15625 -161.0625 L 26.15625 -172.0625 L 70.890625 -172.0625 L 70.890625 -140.0625 C 75.484375 -150.84375 82.082031 -159.445312 90.6875 -165.875 C 99.289062 -172.300781 109.898438 -175.515625 122.515625 -175.515625 C 138.804688 -175.515625 151.367188 -170.984375 160.203125 -161.921875 C 169.035156 -152.859375 173.453125 -140.410156 173.453125 -124.578125 L 173.453125 -115.96875 L 151.078125 -115.96875 L 151.078125 -123.546875 C 151.078125 -135.703125 148.035156 -145.164062 141.953125 -151.9375 C 135.878906 -158.707031 126.988281 -162.09375 115.28125 -162.09375 C 101.289062 -162.09375 90.394531 -156.582031 82.59375 -145.5625 C 74.789062 -134.550781 70.890625 -119.867188 70.890625 -101.515625 L 70.890625 -17.546875 C 70.890625 -13.421875 73.070312 -11.359375 77.4375 -11.359375 L 93.265625 -11.359375 L 93.265625 0 Z M 26.15625 0 "/></g></g></g><g fill="#000000" fill-opacity="1"><g transform="translate(494.654067, 381.292585)"><g><path d="M 146.265625 -126.984375 C 146.265625 -139.148438 142.25 -148.441406 134.21875 -154.859375 C 126.1875 -161.285156 115.171875 -164.5 101.171875 -164.5 C 86.953125 -164.5 75.882812 -161.285156 67.96875 -154.859375 C 60.050781 -148.441406 56.09375 -139.148438 56.09375 -126.984375 L 56.09375 -119.421875 L 33.71875 -119.421875 L 33.71875 -172.0625 L 45.078125 -172.0625 L 49.90625 -149.015625 C 58.851562 -166.679688 77.550781 -175.515625 106 -175.515625 C 125.726562 -175.515625 141.097656 -171.15625 152.109375 -162.4375 C 163.117188 -153.71875 168.625 -141.554688 168.625 -125.953125 L 168.625 -17.546875 C 168.625 -13.421875 170.804688 -11.359375 175.171875 -11.359375 L 191 -11.359375 L 191 0 L 146.265625 0 L 146.265625 -39.234375 C 140.753906 -26.148438 132.550781 -15.765625 121.65625 -8.078125 C 110.757812 -0.398438 97.625 3.4375 82.25 3.4375 C 65.5 3.4375 52.078125 -1.035156 41.984375 -9.984375 C 31.890625 -18.929688 26.84375 -31.316406 26.84375 -47.140625 C 26.84375 -65.953125 32.921875 -80.234375 45.078125 -89.984375 C 57.242188 -99.742188 73.535156 -104.625 93.953125 -104.625 L 146.265625 -104.625 Z M 49.21875 -49.21875 C 49.21875 -36.59375 52.882812 -26.894531 60.21875 -20.125 C 67.5625 -13.363281 77.546875 -9.984375 90.171875 -9.984375 C 101.640625 -9.984375 111.5625 -13.019531 119.9375 -19.09375 C 128.3125 -25.175781 134.789062 -33.492188 139.375 -44.046875 C 143.96875 -54.597656 146.265625 -66.644531 146.265625 -80.1875 L 146.265625 -93.265625 L 97.046875 -93.265625 C 82.128906 -93.265625 70.425781 -89.59375 61.9375 -82.25 C 53.457031 -74.90625 49.21875 -63.894531 49.21875 -49.21875 Z M 49.21875 -49.21875 "/></g></g></g><g fill="#000000" fill-opacity="1"><g transform="translate(653.647637, 381.292585)"><g><path d="M 125.609375 3.4375 C 110.929688 3.4375 98.3125 -0.398438 87.75 -8.078125 C 77.195312 -15.765625 69.285156 -26.835938 64.015625 -41.296875 L 64.015625 51.28125 C 64.015625 55.632812 66.191406 57.8125 70.546875 57.8125 L 98.421875 57.8125 L 98.421875 68.828125 L 19.265625 68.828125 L 19.265625 57.8125 L 35.453125 57.8125 C 39.578125 57.8125 41.640625 55.632812 41.640625 51.28125 L 41.640625 -154.515625 C 41.640625 -158.878906 39.578125 -161.0625 35.453125 -161.0625 L 19.265625 -161.0625 L 19.265625 -172.0625 L 64.015625 -172.0625 L 64.015625 -130.421875 C 69.285156 -145.109375 77.195312 -156.296875 87.75 -163.984375 C 98.3125 -171.671875 110.929688 -175.515625 125.609375 -175.515625 C 146.710938 -175.515625 163.457031 -167.710938 175.84375 -152.109375 C 188.238281 -136.503906 194.4375 -114.363281 194.4375 -85.6875 C 194.4375 -57.238281 188.238281 -35.269531 175.84375 -19.78125 C 163.457031 -4.300781 146.710938 3.4375 125.609375 3.4375 Z M 64.015625 -85.6875 C 64.015625 -61.832031 68.945312 -43.25 78.8125 -29.9375 C 88.675781 -16.632812 101.640625 -9.984375 117.703125 -9.984375 C 134.210938 -9.984375 147.398438 -16.632812 157.265625 -29.9375 C 167.128906 -43.25 172.0625 -61.832031 172.0625 -85.6875 C 172.0625 -109.78125 167.128906 -128.535156 157.265625 -141.953125 C 147.398438 -155.378906 134.210938 -162.09375 117.703125 -162.09375 C 101.640625 -162.09375 88.675781 -155.378906 78.8125 -141.953125 C 68.945312 -128.535156 64.015625 -109.78125 64.015625 -85.6875 Z M 64.015625 -85.6875 "/></g></g></g><g fill="#000000" fill-opacity="1"><g transform="translate(822.277317, 381.292585)"><g><path d="M 106 3.4375 C 88.5625 3.4375 73.875 -0.34375 61.9375 -7.90625 C 50.007812 -15.476562 40.945312 -25.972656 34.75 -39.390625 C 28.5625 -52.816406 25.46875 -68.476562 25.46875 -86.375 C 25.46875 -104.269531 28.503906 -119.867188 34.578125 -133.171875 C 40.660156 -146.484375 49.664062 -156.867188 61.59375 -164.328125 C 73.53125 -171.785156 88.101562 -175.515625 105.3125 -175.515625 C 130.082031 -175.515625 149.460938 -167.484375 163.453125 -151.421875 C 177.453125 -135.359375 184.453125 -113.789062 184.453125 -86.71875 L 184.453125 -82.59375 L 47.828125 -82.59375 C 48.296875 -59.644531 53.460938 -41.460938 63.328125 -28.046875 C 73.191406 -14.628906 87.300781 -7.921875 105.65625 -7.921875 C 119.875 -7.921875 131.515625 -12.046875 140.578125 -20.296875 C 149.640625 -28.554688 156.007812 -40.03125 159.6875 -54.71875 L 181.703125 -54.71875 C 177.347656 -36.59375 168.742188 -22.367188 155.890625 -12.046875 C 143.046875 -1.722656 126.414062 3.4375 106 3.4375 Z M 48.171875 -93.953125 L 162.09375 -93.609375 C 161.40625 -115.171875 156.242188 -132.375 146.609375 -145.21875 C 136.972656 -158.070312 123.207031 -164.5 105.3125 -164.5 C 87.644531 -164.5 73.9375 -158.128906 64.1875 -145.390625 C 54.4375 -132.660156 49.097656 -115.515625 48.171875 -93.953125 Z M 48.171875 -93.953125 "/></g></g></g><g fill="#000000" fill-opacity="1"><g transform="translate(980.929518, 381.292585)"><g/></g></g><g fill="#000000" fill-opacity="1"><g transform="translate(456.701983, 627.926529)"><g><path d="M 115.640625 3.4375 C 98.203125 3.4375 83.285156 0.285156 70.890625 -6.015625 C 58.503906 -12.328125 49.328125 -21.566406 43.359375 -33.734375 L 37.859375 0 L 25.125 0 L 25.125 -69.171875 L 49.21875 -69.171875 L 49.21875 -67.796875 C 49.21875 -47.835938 54.953125 -33.15625 66.421875 -23.75 C 77.890625 -14.34375 92.800781 -9.640625 111.15625 -9.640625 C 128.820312 -9.640625 143.390625 -14.226562 154.859375 -23.40625 C 166.335938 -32.582031 172.078125 -46.460938 172.078125 -65.046875 C 172.078125 -78.804688 168.863281 -89.585938 162.4375 -97.390625 C 156.019531 -105.191406 145.925781 -110.359375 132.15625 -112.890625 L 80.1875 -122.859375 C 63.4375 -126.304688 50.644531 -133.078125 41.8125 -143.171875 C 32.976562 -153.265625 28.5625 -166.800781 28.5625 -183.78125 C 28.5625 -202.132812 35.15625 -216.816406 48.34375 -227.828125 C 61.539062 -238.835938 80.644531 -244.34375 105.65625 -244.34375 C 122.175781 -244.34375 136.34375 -241.585938 148.15625 -236.078125 C 159.976562 -230.578125 168.753906 -222.320312 174.484375 -211.3125 L 180 -240.90625 L 192.734375 -240.90625 L 192.734375 -178.609375 L 168.640625 -178.609375 L 168.640625 -179.3125 C 168.640625 -197.664062 163.242188 -210.96875 152.453125 -219.21875 C 141.671875 -227.476562 127.445312 -231.609375 109.78125 -231.609375 C 91.882812 -231.609375 77.890625 -227.648438 67.796875 -219.734375 C 57.703125 -211.828125 52.65625 -200.757812 52.65625 -186.53125 C 52.65625 -162.4375 64.816406 -148.097656 89.140625 -143.515625 L 141.453125 -133.53125 C 177.929688 -126.414062 196.171875 -104.960938 196.171875 -69.171875 C 196.171875 -46.234375 188.882812 -28.394531 174.3125 -15.65625 C 159.75 -2.925781 140.191406 3.4375 115.640625 3.4375 Z M 115.640625 3.4375 "/></g></g></g><g fill="#000000" fill-opacity="1"><g transform="translate(626.711677, 627.926529)"><g><path d="M 106 3.4375 C 88.5625 3.4375 73.875 -0.34375 61.9375 -7.90625 C 50.007812 -15.476562 40.945312 -25.972656 34.75 -39.390625 C 28.5625 -52.816406 25.46875 -68.484375 25.46875 -86.390625 C 25.46875 -104.285156 28.503906 -119.882812 34.578125 -133.1875 C 40.660156 -146.5 49.664062 -156.878906 61.59375 -164.328125 C 73.53125 -171.785156 88.101562 -175.515625 105.3125 -175.515625 C 130.09375 -175.515625 149.476562 -167.484375 163.46875 -151.421875 C 177.46875 -135.367188 184.46875 -113.804688 184.46875 -86.734375 L 184.46875 -82.59375 L 47.84375 -82.59375 C 48.300781 -59.65625 53.460938 -41.472656 63.328125 -28.046875 C 73.191406 -14.628906 87.300781 -7.921875 105.65625 -7.921875 C 119.882812 -7.921875 131.53125 -12.046875 140.59375 -20.296875 C 149.65625 -28.554688 156.019531 -40.03125 159.6875 -54.71875 L 181.71875 -54.71875 C 177.351562 -36.59375 168.742188 -22.367188 155.890625 -12.046875 C 143.046875 -1.722656 126.414062 3.4375 106 3.4375 Z M 48.1875 -93.953125 L 162.09375 -93.609375 C 161.40625 -115.179688 156.242188 -132.390625 146.609375 -145.234375 C 136.972656 -158.078125 123.207031 -164.5 105.3125 -164.5 C 87.644531 -164.5 73.9375 -158.132812 64.1875 -145.40625 C 54.4375 -132.675781 49.101562 -115.523438 48.1875 -93.953125 Z M 48.1875 -93.953125 "/></g></g></g><g fill="#000000" fill-opacity="1"><g transform="translate(785.364408, 627.926529)"><g><path d="M 26.15625 0 L 26.15625 -11.359375 L 42.328125 -11.359375 C 46.460938 -11.359375 48.53125 -13.421875 48.53125 -17.546875 L 48.53125 -154.53125 C 48.53125 -158.882812 46.460938 -161.0625 42.328125 -161.0625 L 26.15625 -161.0625 L 26.15625 -172.078125 L 70.890625 -172.078125 L 70.890625 -129.75 C 76.171875 -144.195312 84.144531 -155.4375 94.8125 -163.46875 C 105.476562 -171.5 118.039062 -175.515625 132.5 -175.515625 C 149.476562 -175.515625 163.414062 -170.640625 174.3125 -160.890625 C 185.207031 -151.140625 190.65625 -137.546875 190.65625 -120.109375 L 190.65625 -17.546875 C 190.65625 -13.421875 192.835938 -11.359375 197.203125 -11.359375 L 213.03125 -11.359375 L 213.03125 0 L 145.921875 0 L 145.921875 -11.359375 L 161.75 -11.359375 C 166.113281 -11.359375 168.296875 -13.421875 168.296875 -17.546875 L 168.296875 -118.390625 C 168.296875 -132.390625 164.335938 -143.113281 156.421875 -150.5625 C 148.503906 -158.019531 138.117188 -161.75 125.265625 -161.75 C 109.441406 -161.75 96.421875 -155.378906 86.203125 -142.640625 C 75.992188 -129.910156 70.890625 -111.960938 70.890625 -88.796875 L 70.890625 -17.546875 C 70.890625 -13.421875 73.070312 -11.359375 77.4375 -11.359375 L 93.265625 -11.359375 L 93.265625 0 Z M 26.15625 0 "/></g></g></g><g fill="#000000" fill-opacity="1"><g transform="translate(966.386814, 627.926529)"><g><path d="M 93.953125 3.4375 C 68.710938 3.4375 51.617188 -5.394531 42.671875 -23.0625 L 37.859375 0 L 26.84375 0 L 26.84375 -49.5625 L 48.1875 -49.5625 L 48.1875 -47.84375 C 48.1875 -34.757812 52.082031 -24.832031 59.875 -18.0625 C 67.675781 -11.300781 77.890625 -7.921875 90.515625 -7.921875 C 103.359375 -7.921875 113.507812 -11.359375 120.96875 -18.234375 C 128.425781 -25.117188 132.15625 -34.644531 132.15625 -46.8125 C 132.15625 -55.0625 129.859375 -62 125.265625 -67.625 C 120.679688 -73.25 113.570312 -76.863281 103.9375 -78.46875 L 66.421875 -86.046875 C 56.554688 -88.335938 48.066406 -92.863281 40.953125 -99.625 C 33.835938 -106.394531 30.28125 -116.09375 30.28125 -128.71875 C 30.28125 -144.082031 35.554688 -155.722656 46.109375 -163.640625 C 56.671875 -171.554688 70.328125 -175.515625 87.078125 -175.515625 C 98.773438 -175.515625 108.753906 -173.503906 117.015625 -169.484375 C 125.273438 -165.472656 131.46875 -159.914062 135.59375 -152.8125 L 140.421875 -172.078125 L 151.765625 -172.078125 L 151.765625 -129.40625 L 130.09375 -129.40625 L 130.09375 -131.46875 C 130.09375 -141.5625 126.648438 -149.585938 119.765625 -155.546875 C 112.878906 -161.515625 103.359375 -164.5 91.203125 -164.5 C 79.273438 -164.5 69.867188 -161.742188 62.984375 -156.234375 C 56.097656 -150.734375 52.65625 -142.59375 52.65625 -131.8125 C 52.65625 -123.550781 55.117188 -117.296875 60.046875 -113.046875 C 64.984375 -108.804688 70.4375 -106.113281 76.40625 -104.96875 L 113.578125 -97.046875 C 127.796875 -94.296875 138.175781 -88.90625 144.71875 -80.875 C 151.257812 -72.84375 154.53125 -62.75 154.53125 -50.59375 C 154.53125 -33.15625 149.078125 -19.789062 138.171875 -10.5 C 127.273438 -1.207031 112.535156 3.4375 93.953125 3.4375 Z M 93.953125 3.4375 "/></g></g></g><g fill="#000000" fill-opacity="1"><g transform="translate(1096.475101, 627.926529)"><g><path d="M 106 3.4375 C 88.5625 3.4375 73.875 -0.34375 61.9375 -7.90625 C 50.007812 -15.476562 40.945312 -25.972656 34.75 -39.390625 C 28.5625 -52.816406 25.46875 -68.484375 25.46875 -86.390625 C 25.46875 -104.285156 28.503906 -119.882812 34.578125 -133.1875 C 40.660156 -146.5 49.664062 -156.878906 61.59375 -164.328125 C 73.53125 -171.785156 88.101562 -175.515625 105.3125 -175.515625 C 130.09375 -175.515625 149.476562 -167.484375 163.46875 -151.421875 C 177.46875 -135.367188 184.46875 -113.804688 184.46875 -86.734375 L 184.46875 -82.59375 L 47.84375 -82.59375 C 48.300781 -59.65625 53.460938 -41.472656 63.328125 -28.046875 C 73.191406 -14.628906 87.300781 -7.921875 105.65625 -7.921875 C 119.882812 -7.921875 131.53125 -12.046875 140.59375 -20.296875 C 149.65625 -28.554688 156.019531 -40.03125 159.6875 -54.71875 L 181.71875 -54.71875 C 177.351562 -36.59375 168.742188 -22.367188 155.890625 -12.046875 C 143.046875 -1.722656 126.414062 3.4375 106 3.4375 Z M 48.1875 -93.953125 L 162.09375 -93.609375 C 161.40625 -115.179688 156.242188 -132.390625 146.609375 -145.234375 C 136.972656 -158.078125 123.207031 -164.5 105.3125 -164.5 C 87.644531 -164.5 73.9375 -158.132812 64.1875 -145.40625 C 54.4375 -132.675781 49.101562 -115.523438 48.1875 -93.953125 Z M 48.1875 -93.953125 "/></g></g></g><g clip-path="url(#e103353c5b)"><g clip-path="url(#c71951c92d)"><g clip-path="url(#94038cb62a)"><path fill="#8f74c4" d="M 1170.15625 286.285156 L 1134.296875 254.746094 L 1143.683594 207.921875 L 1188.929688 192.636719 L 1224.789062 224.179688 L 1215.402344 271.003906 Z M 1170.15625 286.285156 " fill-opacity="1" fill-rule="nonzero"/></g></g></g><g clip-path="url(#b6eb84ed6d)"><g clip-path="url(#e713704c20)"><g clip-path="url(#cb0f4a15a9)"><path fill="#000000" d="M 1188.449219 195.847656 L 1222.085938 225.445312 L 1213.285156 269.375 L 1170.847656 283.707031 L 1137.191406 254.121094 L 1146.011719 210.183594 L 1188.449219 195.847656 M 1189.109375 192.574219 L 1143.5 207.984375 L 1134.035156 255.1875 L 1170.183594 286.980469 L 1215.796875 271.574219 L 1225.257812 224.371094 Z M 1189.109375 192.574219 " fill-opacity="1" fill-rule="nonzero"/></g></g></g><g clip-path="url(#0ab62e2667)"><g clip-path="url(#7c3ad72126)"><g clip-path="url(#e8a55c4101)"><path fill="#8f74c4" d="M 1153.566406 359.042969 L 1117.707031 327.503906 L 1127.097656 280.679688 L 1172.34375 265.394531 L 1208.199219 296.9375 L 1198.8125 343.761719 Z M 1153.566406 359.042969 " fill-opacity="1" fill-rule="nonzero"/></g></g></g><g clip-path="url(#9fce0a6a42)"><g clip-path="url(#de490aaff9)"><g clip-path="url(#9267dd2dd5)"><path fill="#000000" d="M 1171.859375 268.605469 L 1205.496094 298.203125 L 1196.695312 342.132812 L 1154.257812 356.46875 L 1120.601562 326.878906 L 1129.421875 282.941406 L 1171.859375 268.605469 M 1172.523438 265.332031 L 1126.910156 280.742188 L 1117.445312 327.945312 L 1153.597656 359.738281 L 1199.207031 344.332031 L 1208.671875 297.128906 Z M 1172.523438 265.332031 " fill-opacity="1" fill-rule="nonzero"/></g></g></g><g clip-path="url(#16c698906a)"><g clip-path="url(#ba5e6a1199)"><g clip-path="url(#3e50ab9bd7)"><path fill="#8f74c4" d="M 1144.289062 428.507812 L 1108.429688 396.96875 L 1117.820312 350.140625 L 1163.066406 334.859375 L 1198.921875 366.398438 L 1189.535156 413.222656 Z M 1144.289062 428.507812 " fill-opacity="1" fill-rule="nonzero"/></g></g></g><g clip-path="url(#a6a69570a6)"><g clip-path="url(#f7babe0517)"><g clip-path="url(#f729e38cdb)"><path fill="#000000" d="M 1162.582031 338.070312 L 1196.21875 367.664062 L 1187.417969 411.597656 L 1144.980469 425.929688 L 1111.328125 396.339844 L 1120.144531 352.40625 L 1162.582031 338.070312 M 1163.246094 334.796875 L 1117.632812 350.203125 L 1108.171875 397.40625 L 1144.320312 429.203125 L 1189.929688 413.796875 L 1199.394531 366.59375 Z M 1163.246094 334.796875 " fill-opacity="1" fill-rule="nonzero"/></g></g></g><g clip-path="url(#1268e51f60)"><g clip-path="url(#a314af6f05)"><g clip-path="url(#8f63d42f7d)"><path fill="#8f74c4" d="M 1091.011719 380.175781 L 1055.152344 348.636719 L 1064.539062 301.808594 L 1109.785156 286.527344 L 1145.644531 318.066406 L 1136.253906 364.890625 Z M 1091.011719 380.175781 " fill-opacity="1" fill-rule="nonzero"/></g></g></g><g clip-path="url(#b376e9bacf)"><g clip-path="url(#0965ed0b2a)"><g clip-path="url(#c793d1cee7)"><path fill="#000000" d="M 1109.300781 289.738281 L 1142.9375 319.332031 L 1134.136719 363.265625 L 1091.703125 377.597656 L 1058.046875 348.007812 L 1066.863281 304.074219 L 1109.300781 289.738281 M 1109.964844 286.464844 L 1064.351562 301.871094 L 1054.890625 349.074219 L 1091.039062 380.871094 L 1136.648438 365.464844 L 1146.113281 318.261719 Z M 1109.964844 286.464844 " fill-opacity="1" fill-rule="nonzero"/></g></g></g><g clip-path="url(#78c909523e)"><g clip-path="url(#988cf52355)"><g clip-path="url(#de4b23dd93)"><path fill="#8f74c4" d="M 1046.34375 321.714844 L 1010.484375 290.171875 L 1019.871094 243.347656 L 1065.117188 228.0625 L 1100.976562 259.605469 L 1091.589844 306.429688 Z M 1046.34375 321.714844 " fill-opacity="1" fill-rule="nonzero"/></g></g></g><g clip-path="url(#77779a720a)"><g clip-path="url(#37febffe1d)"><g clip-path="url(#8209b04127)"><path fill="#000000" d="M 1064.636719 231.273438 L 1098.273438 260.871094 L 1089.472656 304.800781 L 1047.035156 319.136719 L 1013.378906 289.546875 L 1022.199219 245.609375 L 1064.636719 231.273438 M 1065.296875 228 L 1019.6875 243.410156 L 1010.222656 290.613281 L 1046.371094 322.410156 L 1091.984375 307 L 1101.445312 259.796875 Z M 1065.296875 228 " fill-opacity="1" fill-rule="nonzero"/></g></g></g><g clip-path="url(#f78c95e6e1)"><g clip-path="url(#8ea9c44ad1)"><g clip-path="url(#803a33fb5d)"><path fill="#8f74c4" d="M 1112.015625 305.925781 L 1076.15625 274.386719 L 1085.542969 227.5625 L 1130.789062 212.277344 L 1166.648438 243.816406 L 1157.261719 290.644531 Z M 1112.015625 305.925781 " fill-opacity="1" fill-rule="nonzero"/></g></g></g><g clip-path="url(#18d980d717)"><g clip-path="url(#9820ec0aa0)"><g clip-path="url(#47ccb534e1)"><path fill="#000000" d="M 1130.304688 215.488281 L 1163.941406 245.082031 L 1155.140625 289.015625 L 1112.707031 303.347656 L 1079.050781 273.757812 L 1087.867188 229.824219 L 1130.304688 215.488281 M 1130.96875 212.214844 L 1085.355469 227.621094 L 1075.894531 274.824219 L 1112.042969 306.621094 L 1157.652344 291.214844 L 1167.117188 244.011719 Z M 1130.96875 212.214844 " fill-opacity="1" fill-rule="nonzero"/></g></g></g><g clip-path="url(#94658fd560)"><g clip-path="url(#d5faf5fc70)"><g clip-path="url(#27cdca0bad)"><g clip-path="url(#fe88e8c61e)"><path fill="#000000" d="M 1254.917969 227.203125 C 1243.914062 215.652344 1228.539062 209.5625 1211.632812 210.046875 C 1204.136719 210.261719 1196.722656 211.59375 1189.59375 214.003906 C 1173.578125 219.410156 1160.839844 229.578125 1153.230469 242.101562 C 1141.328125 237.863281 1128.363281 237.898438 1115.433594 242.265625 C 1114.890625 242.449219 1114.351562 242.660156 1113.8125 242.855469 C 1113.207031 240.78125 1112.554688 238.636719 1111.824219 236.425781 C 1110.601562 232.609375 1109.175781 228.625 1107.625 224.527344 C 1106.023438 220.449219 1104.332031 216.246094 1102.382812 212.0625 C 1101.054688 209.109375 1099.597656 206.167969 1098.082031 203.246094 C 1113.046875 206.378906 1126.335938 205.996094 1137.820312 202.113281 C 1143.71875 200.121094 1149.144531 197.207031 1154.074219 193.375 C 1184.6875 169.570312 1184.5 119.257812 1184.472656 117.015625 C 1184.472656 117.011719 1184.472656 117.007812 1184.472656 117.007812 L 1184.472656 117.003906 C 1184.472656 117 1184.472656 116.996094 1184.472656 116.992188 C 1184.472656 116.816406 1184.460938 116.640625 1184.441406 116.46875 C 1184.4375 116.449219 1184.433594 116.4375 1184.433594 116.421875 C 1184.414062 116.261719 1184.386719 116.105469 1184.355469 115.949219 C 1184.34375 115.898438 1184.328125 115.847656 1184.316406 115.792969 C 1184.285156 115.679688 1184.257812 115.5625 1184.222656 115.449219 C 1184.199219 115.378906 1184.167969 115.304688 1184.140625 115.234375 C 1184.109375 115.144531 1184.078125 115.054688 1184.042969 114.96875 C 1184.007812 114.894531 1183.972656 114.824219 1183.933594 114.75 C 1183.894531 114.671875 1183.859375 114.589844 1183.816406 114.511719 C 1183.78125 114.445312 1183.738281 114.386719 1183.699219 114.324219 C 1183.652344 114.238281 1183.601562 114.15625 1183.546875 114.074219 C 1183.515625 114.027344 1183.476562 113.984375 1183.445312 113.9375 C 1183.375 113.847656 1183.308594 113.753906 1183.234375 113.667969 C 1183.214844 113.640625 1183.1875 113.617188 1183.167969 113.589844 C 1183.074219 113.488281 1182.984375 113.386719 1182.886719 113.292969 C 1182.882812 113.285156 1182.875 113.277344 1182.867188 113.273438 C 1182.03125 112.460938 1180.929688 111.917969 1179.679688 111.800781 C 1177.558594 111.605469 1127.386719 107.289062 1101.160156 135.921875 C 1090.117188 147.984375 1085.074219 163.921875 1086.101562 183.429688 C 1085.710938 182.878906 1085.316406 182.332031 1084.910156 181.796875 C 1084.230469 180.875 1083.558594 179.960938 1082.890625 179.050781 C 1082.207031 178.148438 1081.484375 177.289062 1080.789062 176.414062 C 1080.089844 175.546875 1079.394531 174.6875 1078.707031 173.835938 C 1077.980469 173.011719 1077.257812 172.199219 1076.546875 171.394531 C 1075.828125 170.589844 1075.121094 169.796875 1074.421875 169.011719 C 1073.683594 168.257812 1072.953125 167.515625 1072.234375 166.78125 C 1071.515625 166.046875 1070.804688 165.324219 1070.105469 164.609375 C 1069.367188 163.933594 1068.636719 163.269531 1067.921875 162.613281 C 1066.496094 161.300781 1065.121094 160.023438 1063.695312 158.914062 C 1062.28125 157.789062 1060.980469 156.640625 1059.640625 155.683594 C 1058.296875 154.722656 1057.027344 153.808594 1055.828125 152.949219 C 1055.246094 152.511719 1054.632812 152.117188 1054.023438 151.75 C 1053.425781 151.375 1052.847656 151.011719 1052.289062 150.667969 C 1051.175781 149.976562 1050.148438 149.34375 1049.226562 148.773438 C 1045.679688 146.875 1043.652344 145.789062 1043.652344 145.789062 C 1043.605469 145.765625 1043.539062 145.730469 1043.492188 145.707031 C 1040.875 144.421875 1037.714844 145.496094 1036.429688 148.113281 C 1035.144531 150.730469 1036.222656 153.898438 1038.839844 155.1875 C 1038.839844 155.1875 1040.898438 156.203125 1044.507812 157.980469 C 1045.304688 158.445312 1046.191406 158.957031 1047.152344 159.519531 C 1047.636719 159.796875 1048.136719 160.085938 1048.65625 160.386719 C 1049.179688 160.675781 1049.71875 160.996094 1050.269531 161.382812 C 1051.375 162.121094 1052.554688 162.90625 1053.792969 163.738281 C 1055.039062 164.5625 1056.25 165.574219 1057.574219 166.546875 C 1058.90625 167.507812 1060.199219 168.640625 1061.550781 169.796875 C 1062.226562 170.375 1062.914062 170.964844 1063.613281 171.5625 C 1064.277344 172.195312 1064.953125 172.839844 1065.640625 173.496094 C 1066.324219 174.148438 1067.023438 174.8125 1067.726562 175.484375 C 1068.398438 176.191406 1069.082031 176.90625 1069.769531 177.628906 C 1070.054688 177.925781 1070.34375 178.234375 1070.628906 178.535156 C 1059.402344 172.210938 1047.804688 169.617188 1035.953125 170.816406 C 997.433594 174.707031 970.921875 217.300781 969.683594 219.328125 C 969.488281 219.644531 969.332031 219.96875 969.210938 220.308594 C 969.199219 220.335938 969.195312 220.363281 969.183594 220.386719 C 969.136719 220.523438 969.09375 220.664062 969.058594 220.800781 C 969.042969 220.863281 969.035156 220.925781 969.019531 220.988281 C 968.996094 221.089844 968.972656 221.195312 968.957031 221.300781 C 968.945312 221.378906 968.941406 221.453125 968.933594 221.527344 C 968.921875 221.621094 968.910156 221.714844 968.90625 221.808594 C 968.902344 221.882812 968.902344 221.957031 968.902344 222.027344 C 968.902344 222.125 968.898438 222.222656 968.902344 222.320312 C 968.90625 222.378906 968.914062 222.4375 968.917969 222.5 C 968.925781 222.609375 968.933594 222.71875 968.949219 222.828125 C 968.953125 222.867188 968.964844 222.90625 968.96875 222.945312 C 968.992188 223.074219 969.015625 223.203125 969.042969 223.332031 C 969.046875 223.347656 969.054688 223.367188 969.058594 223.382812 C 969.339844 224.503906 969.984375 225.542969 970.972656 226.296875 C 972.667969 227.59375 1012.914062 257.914062 1050.335938 247.59375 C 1051.363281 247.3125 1052.378906 247 1053.378906 246.664062 C 1069.738281 241.136719 1082.644531 228.277344 1091.832031 208.375 C 1093.109375 210.683594 1094.34375 213.007812 1095.492188 215.351562 C 1097.503906 219.3125 1099.277344 223.320312 1100.957031 227.214844 C 1102.59375 231.132812 1104.105469 234.949219 1105.417969 238.621094 C 1106.273438 240.945312 1107.035156 243.199219 1107.746094 245.371094 C 1096.367188 250.691406 1086.371094 258.8125 1079.167969 268.648438 C 1064.765625 259.199219 1045.210938 257.714844 1024.507812 264.707031 C 1008.261719 270.195312 996.472656 280.578125 990.425781 294.730469 C 984.804688 307.878906 984.628906 323.765625 989.929688 339.460938 C 999.292969 367.179688 1022.664062 383.097656 1048.738281 381.394531 C 1045.6875 394.019531 1045.921875 407.125 1049.527344 419.046875 C 1054.160156 434.382812 1064.046875 446.414062 1077.371094 452.921875 C 1087.878906 458.054688 1099.265625 460.039062 1110.429688 458.835938 C 1110.5 459.84375 1110.585938 460.851562 1110.707031 461.855469 C 1112.707031 478.890625 1120.691406 495.210938 1132.609375 506.636719 C 1145.300781 518.796875 1161.089844 524.46875 1177.066406 522.601562 C 1181.453125 522.085938 1185.707031 521.128906 1189.769531 519.757812 C 1200.738281 516.050781 1210.34375 509.316406 1217.550781 500.128906 C 1227.558594 487.363281 1231.976562 470.992188 1229.980469 454.027344 C 1228.617188 442.410156 1224.707031 431.625 1218.601562 422.492188 C 1229.984375 414.410156 1238.117188 402.886719 1241.769531 389.472656 C 1246.03125 373.816406 1243.742188 357.011719 1235.316406 342.152344 C 1232.265625 336.765625 1228.667969 331.902344 1224.578125 327.597656 C 1226.605469 327.105469 1228.605469 326.539062 1230.566406 325.875 C 1256.382812 317.15625 1272.582031 295.15625 1271.839844 269.828125 C 1271.355469 253.277344 1265.347656 238.140625 1254.917969 227.203125 Z M 1108.917969 143.089844 C 1127.183594 123.117188 1161.054688 121.820312 1173.742188 122.09375 C 1172.984375 134.769531 1168.941406 168.457031 1147.566406 185.050781 C 1135.078125 194.75 1118.285156 197.1875 1097.632812 192.324219 C 1094.464844 171.320312 1098.246094 154.761719 1108.917969 143.089844 Z M 1047.5625 237.402344 C 1021.484375 244.617188 992.078125 227.710938 981.464844 220.738281 C 988.835938 210.402344 1010.128906 184.019531 1037.054688 181.320312 C 1052.789062 179.742188 1068.320312 186.605469 1083.253906 201.707031 C 1074.796875 221.179688 1062.796875 233.183594 1047.5625 237.402344 Z M 1148.597656 251.683594 C 1146.347656 257.789062 1145.222656 264.25 1145.417969 270.855469 C 1145.898438 287.203125 1152.59375 302.246094 1164.269531 313.203125 C 1168.011719 316.71875 1172.164062 319.699219 1176.628906 322.125 C 1169.992188 333.605469 1158.5625 342.6875 1144.546875 347.421875 C 1127.46875 353.191406 1109.96875 350.511719 1096.535156 340.0625 C 1088.84375 334.089844 1083.082031 325.917969 1079.878906 316.433594 C 1075.800781 304.355469 1077.609375 291.039062 1084.972656 278.933594 C 1090.9375 269.109375 1100.121094 260.894531 1110.863281 255.578125 C 1111.890625 259.25 1112.683594 262.417969 1113.265625 264.898438 C 1113.707031 266.828125 1114.039062 268.351562 1114.242188 269.378906 C 1114.4375 270.390625 1114.542969 270.929688 1114.542969 270.929688 L 1114.566406 271.039062 C 1114.855469 272.519531 1116.265625 273.515625 1117.765625 273.277344 C 1119.300781 273.035156 1120.347656 271.59375 1120.101562 270.058594 C 1120.101562 270.058594 1120.007812 269.464844 1119.832031 268.355469 C 1119.652344 267.261719 1119.363281 265.683594 1118.972656 263.675781 C 1118.417969 260.890625 1117.636719 257.277344 1116.59375 253.082031 C 1117.332031 252.800781 1118.070312 252.527344 1118.816406 252.277344 C 1129.042969 248.820312 1139.238281 248.640625 1148.597656 251.683594 Z M 999.929688 336.085938 C 990.367188 307.773438 1001.34375 283.683594 1027.890625 274.714844 C 1045.554688 268.75 1061.929688 269.875 1073.617188 277.660156 C 1066.621094 291.339844 1065.265625 306.140625 1069.882812 319.808594 C 1073.289062 329.902344 1079.113281 338.773438 1086.832031 345.699219 C 1082.664062 353.988281 1075.050781 363.550781 1061.300781 368.195312 C 1034.601562 377.214844 1009.363281 364.011719 999.929688 336.085938 Z M 1060.203125 379.523438 C 1061.695312 379.136719 1063.1875 378.707031 1064.683594 378.203125 C 1077.898438 373.738281 1088.609375 364.578125 1095.386719 352.097656 C 1103.1875 356.925781 1111.855469 359.820312 1120.894531 360.695312 C 1119.558594 372.53125 1122.132812 384.535156 1128.496094 395.761719 C 1133.730469 404.996094 1140.894531 413.070312 1149.375 419.332031 C 1136.519531 445.558594 1107.578125 455.921875 1081.996094 443.429688 C 1060.886719 433.113281 1051.796875 405.984375 1060.203125 379.523438 Z M 1219.503906 455.25 C 1221.167969 469.425781 1217.527344 483.046875 1209.25 493.601562 C 1201.121094 503.964844 1189.253906 510.539062 1175.839844 512.105469 C 1149.851562 515.144531 1124.824219 491.570312 1121.1875 460.621094 C 1121.035156 459.332031 1120.929688 458.039062 1120.871094 456.753906 C 1121.609375 456.539062 1122.347656 456.316406 1123.078125 456.070312 C 1123.25 456.011719 1123.417969 455.953125 1123.589844 455.894531 C 1138.507812 450.703125 1150.792969 439.753906 1158.332031 424.996094 C 1173.472656 433.089844 1189.84375 434.800781 1204.324219 429.910156 C 1206.078125 429.316406 1207.796875 428.617188 1209.488281 427.832031 C 1214.867188 435.6875 1218.308594 445.078125 1219.503906 455.25 Z M 1226.144531 347.359375 C 1233.179688 359.773438 1235.113281 373.742188 1231.589844 386.6875 C 1228.128906 399.40625 1219.746094 410.078125 1207.996094 416.742188 C 1193.511719 424.957031 1175.140625 423.585938 1158.855469 413.0625 C 1150.152344 407.433594 1142.832031 399.648438 1137.675781 390.554688 C 1132.238281 380.96875 1130.140625 370.761719 1131.511719 360.800781 C 1136.957031 360.390625 1142.464844 359.277344 1147.929688 357.433594 C 1164.796875 351.734375 1178.539062 340.539062 1186.359375 326.347656 C 1193.488281 328.742188 1201.152344 329.894531 1209.070312 329.667969 C 1209.78125 329.648438 1210.488281 329.609375 1211.191406 329.570312 C 1217.128906 334.371094 1222.160156 340.335938 1226.144531 347.359375 Z M 1261.292969 270.132812 C 1261.898438 290.710938 1248.511719 308.660156 1227.1875 315.863281 C 1221.359375 317.832031 1215.160156 318.925781 1208.761719 319.109375 C 1179.5 319.949219 1156.804688 299.074219 1155.964844 270.550781 C 1155.371094 250.390625 1170.246094 231.6875 1192.972656 224.011719 C 1199.109375 221.9375 1205.492188 220.792969 1211.945312 220.605469 C 1226.023438 220.203125 1238.242188 225.003906 1247.285156 234.492188 C 1255.910156 243.535156 1260.882812 256.195312 1261.292969 270.132812 Z M 1261.292969 270.132812 " fill-opacity="1" fill-rule="nonzero"/></g></g></g></g><g clip-path="url(#317733c803)"><g clip-path="url(#447124b231)"><g clip-path="url(#51025b0c07)"><path fill="#8f74c4" d="M 301.136719 410.636719 C 284.128906 410.636719 267.628906 413.964844 252.09375 420.53125 C 237.089844 426.871094 223.625 435.945312 212.0625 447.503906 C 200.503906 459.066406 191.429688 472.53125 185.089844 487.53125 C 178.527344 503.066406 175.195312 519.566406 175.195312 536.578125 C 175.199219 542.265625 179.808594 546.878906 185.5 546.878906 C 191.191406 546.878906 195.800781 542.265625 195.800781 536.578125 C 195.800781 478.496094 243.054688 431.242188 301.136719 431.242188 C 303.980469 431.242188 306.558594 430.089844 308.421875 428.222656 C 310.285156 426.359375 311.4375 423.785156 311.441406 420.9375 C 311.4375 415.25 306.828125 410.636719 301.136719 410.636719 Z M 301.136719 410.636719 " fill-opacity="1" fill-rule="nonzero"/></g></g></g><g clip-path="url(#5128641211)"><g clip-path="url(#c08bf17cb6)"><g clip-path="url(#c5a5d8cf99)"><path fill="#8f74c4" d="M 238.566406 474.039062 C 221.703125 490.90625 212.414062 513.34375 212.414062 537.226562 C 212.414062 542.605469 216.773438 546.964844 222.152344 546.964844 C 227.53125 546.964844 231.894531 542.605469 231.894531 537.226562 C 231.894531 498.707031 263.230469 467.367188 301.75 467.371094 C 304.441406 467.371094 306.875 466.28125 308.636719 464.515625 C 310.398438 462.753906 311.488281 460.320312 311.488281 457.628906 C 311.488281 452.25 307.128906 447.890625 301.75 447.890625 C 277.871094 447.890625 255.429688 457.179688 238.5625 474.042969 Z M 238.566406 474.039062 " fill-opacity="1" fill-rule="nonzero"/></g></g></g><g clip-path="url(#5b20f525f9)"><g clip-path="url(#0a60a7bdc7)"><g clip-path="url(#fa79671e7a)"><path fill="#8f74c4" d="M 263.425781 498.898438 C 253.171875 509.152344 247.523438 522.796875 247.523438 537.3125 C 247.523438 542.664062 251.863281 547.003906 257.214844 547.003906 C 262.566406 547.003906 266.902344 542.664062 266.902344 537.3125 C 266.902344 518.050781 282.578125 502.375 301.839844 502.375 C 304.515625 502.375 306.9375 501.292969 308.691406 499.539062 C 310.445312 497.785156 311.53125 495.363281 311.53125 492.6875 C 311.53125 487.335938 307.191406 482.996094 301.839844 482.996094 C 287.324219 482.996094 273.679688 488.644531 263.425781 498.898438 Z M 263.425781 498.898438 " fill-opacity="1" fill-rule="nonzero"/></g></g></g><g clip-path="url(#5a71db71a5)"><path fill="#8f74c4" d="M 445.5 526.867188 L 414.246094 526.867188 L 403.316406 506.664062 C 402.710938 505.542969 401.964844 504.519531 401.085938 503.601562 C 400.203125 502.679688 399.214844 501.890625 398.121094 501.238281 C 397.027344 500.582031 395.863281 500.082031 394.636719 499.742188 C 393.40625 499.398438 392.15625 499.222656 390.878906 499.21875 L 354.597656 499.21875 C 353.300781 499.222656 352.027344 499.398438 350.777344 499.746094 C 349.53125 500.097656 348.351562 500.609375 347.242188 501.285156 C 346.132812 501.957031 345.136719 502.765625 344.25 503.714844 C 343.363281 504.660156 342.617188 505.707031 342.019531 506.859375 L 331.605469 526.867188 L 324.675781 526.867188 C 324.664062 526.582031 324.628906 526.300781 324.5625 526.019531 C 324.496094 525.742188 324.40625 525.472656 324.289062 525.214844 C 324.171875 524.953125 324.03125 524.707031 323.863281 524.472656 C 323.699219 524.238281 323.515625 524.023438 323.308594 523.828125 C 323.101562 523.628906 322.878906 523.453125 322.640625 523.296875 C 322.402344 523.144531 322.148438 523.011719 321.882812 522.90625 C 321.617188 522.800781 321.347656 522.71875 321.066406 522.664062 C 320.785156 522.609375 320.503906 522.582031 320.21875 522.582031 L 317.816406 522.582031 C 317.617188 522.082031 317.292969 521.683594 316.847656 521.378906 C 316.398438 521.078125 315.90625 520.929688 315.367188 520.929688 L 308.84375 520.929688 C 308.308594 520.929688 307.8125 521.082031 307.367188 521.382812 C 306.921875 521.683594 306.597656 522.085938 306.394531 522.582031 L 304.066406 522.582031 C 303.78125 522.582031 303.5 522.609375 303.21875 522.664062 C 302.9375 522.71875 302.667969 522.800781 302.402344 522.90625 C 302.136719 523.011719 301.886719 523.144531 301.648438 523.296875 C 301.40625 523.453125 301.183594 523.628906 300.980469 523.828125 C 300.773438 524.027344 300.589844 524.242188 300.425781 524.472656 C 300.261719 524.707031 300.121094 524.953125 300.007812 525.214844 C 299.890625 525.476562 299.800781 525.746094 299.734375 526.023438 C 299.671875 526.300781 299.632812 526.582031 299.625 526.867188 C 298.582031 526.878906 297.550781 526.988281 296.53125 527.203125 C 295.507812 527.417969 294.519531 527.726562 293.558594 528.132812 C 292.597656 528.539062 291.6875 529.035156 290.824219 529.621094 C 289.960938 530.207031 289.164062 530.871094 288.429688 531.613281 C 287.699219 532.351562 287.042969 533.160156 286.46875 534.027344 C 285.890625 534.898438 285.40625 535.8125 285.011719 536.777344 C 284.613281 537.742188 284.316406 538.734375 284.113281 539.757812 C 283.910156 540.78125 283.808594 541.816406 283.808594 542.855469 L 283.808594 612.292969 C 283.808594 612.820312 283.835938 613.339844 283.886719 613.863281 C 283.9375 614.382812 284.015625 614.902344 284.117188 615.414062 C 284.21875 615.929688 284.347656 616.433594 284.5 616.9375 C 284.652344 617.4375 284.828125 617.929688 285.027344 618.414062 C 285.226562 618.898438 285.453125 619.371094 285.699219 619.832031 C 285.945312 620.292969 286.214844 620.742188 286.503906 621.179688 C 286.796875 621.613281 287.109375 622.035156 287.441406 622.4375 C 287.773438 622.84375 288.125 623.230469 288.492188 623.601562 C 288.863281 623.972656 289.25 624.324219 289.65625 624.65625 C 290.0625 624.988281 290.480469 625.300781 290.917969 625.589844 C 291.351562 625.882812 291.800781 626.152344 292.261719 626.398438 C 292.726562 626.644531 293.199219 626.867188 293.683594 627.070312 C 294.164062 627.269531 294.660156 627.445312 295.160156 627.597656 C 295.660156 627.75 296.167969 627.875 296.683594 627.980469 C 297.195312 628.082031 297.714844 628.15625 298.234375 628.207031 C 298.753906 628.261719 299.277344 628.285156 299.800781 628.285156 L 445.5 628.285156 C 446.023438 628.285156 446.546875 628.261719 447.066406 628.207031 C 447.589844 628.15625 448.105469 628.082031 448.621094 627.980469 C 449.132812 627.875 449.640625 627.75 450.140625 627.597656 C 450.644531 627.445312 451.136719 627.269531 451.621094 627.070312 C 452.101562 626.867188 452.574219 626.644531 453.039062 626.398438 C 453.5 626.152344 453.949219 625.882812 454.382812 625.589844 C 454.820312 625.300781 455.238281 624.988281 455.644531 624.65625 C 456.050781 624.324219 456.4375 623.972656 456.808594 623.601562 C 457.175781 623.230469 457.527344 622.84375 457.859375 622.4375 C 458.191406 622.035156 458.503906 621.613281 458.796875 621.179688 C 459.085938 620.742188 459.355469 620.292969 459.601562 619.832031 C 459.847656 619.371094 460.074219 618.898438 460.273438 618.414062 C 460.472656 617.929688 460.648438 617.4375 460.800781 616.9375 C 460.953125 616.433594 461.082031 615.929688 461.183594 615.414062 C 461.285156 614.902344 461.363281 614.382812 461.414062 613.863281 C 461.464844 613.339844 461.492188 612.820312 461.492188 612.292969 L 461.492188 542.769531 C 461.484375 541.722656 461.378906 540.6875 461.167969 539.660156 C 460.960938 538.636719 460.652344 537.640625 460.25 536.675781 C 459.84375 535.710938 459.347656 534.792969 458.765625 533.925781 C 458.179688 533.058594 457.519531 532.257812 456.777344 531.519531 C 456.035156 530.78125 455.226562 530.121094 454.355469 529.542969 C 453.484375 528.964844 452.566406 528.472656 451.597656 528.074219 C 450.632812 527.675781 449.636719 527.375 448.609375 527.171875 C 447.582031 526.96875 446.546875 526.867188 445.5 526.867188 Z M 372.652344 615.707031 C 371.226562 615.707031 369.808594 615.636719 368.390625 615.5 C 366.976562 615.359375 365.570312 615.152344 364.175781 614.875 C 362.777344 614.597656 361.398438 614.253906 360.039062 613.839844 C 358.675781 613.429688 357.335938 612.949219 356.023438 612.40625 C 354.707031 611.863281 353.421875 611.253906 352.167969 610.582031 C 350.914062 609.914062 349.695312 609.183594 348.511719 608.394531 C 347.328125 607.601562 346.183594 606.757812 345.085938 605.855469 C 343.984375 604.953125 342.929688 604 341.925781 602.992188 C 340.917969 601.988281 339.964844 600.933594 339.058594 599.835938 C 338.15625 598.734375 337.308594 597.59375 336.519531 596.410156 C 335.726562 595.226562 334.996094 594.007812 334.324219 592.753906 C 333.65625 591.5 333.046875 590.214844 332.5 588.902344 C 331.957031 587.585938 331.476562 586.246094 331.0625 584.886719 C 330.652344 583.523438 330.304688 582.144531 330.027344 580.75 C 329.75 579.355469 329.539062 577.949219 329.398438 576.535156 C 329.261719 575.117188 329.191406 573.699219 329.191406 572.273438 C 329.191406 570.851562 329.257812 569.433594 329.398438 568.015625 C 329.535156 566.601562 329.746094 565.195312 330.023438 563.800781 C 330.300781 562.402344 330.644531 561.023438 331.058594 559.664062 C 331.46875 558.300781 331.949219 556.960938 332.492188 555.648438 C 333.035156 554.332031 333.644531 553.046875 334.316406 551.792969 C 334.984375 550.539062 335.714844 549.320312 336.507812 548.136719 C 337.296875 546.953125 338.144531 545.8125 339.046875 544.710938 C 339.949219 543.609375 340.902344 542.558594 341.90625 541.550781 C 342.914062 540.542969 343.964844 539.589844 345.066406 538.6875 C 346.167969 537.785156 347.308594 536.9375 348.492188 536.144531 C 349.671875 535.355469 350.890625 534.625 352.148438 533.953125 C 353.402344 533.28125 354.6875 532.675781 356 532.128906 C 357.316406 531.585938 358.652344 531.105469 360.015625 530.691406 C 361.375 530.28125 362.753906 529.933594 364.152344 529.65625 C 365.546875 529.378906 366.953125 529.167969 368.367188 529.03125 C 369.785156 528.890625 371.203125 528.820312 372.625 528.820312 C 374.050781 528.820312 375.46875 528.890625 376.886719 529.027344 C 378.300781 529.167969 379.707031 529.375 381.101562 529.652344 C 382.5 529.929688 383.878906 530.277344 385.238281 530.691406 C 386.601562 531.101562 387.9375 531.582031 389.253906 532.125 C 390.566406 532.671875 391.851562 533.277344 393.109375 533.949219 C 394.363281 534.617188 395.582031 535.347656 396.765625 536.140625 C 397.949219 536.929688 399.089844 537.777344 400.191406 538.679688 C 401.289062 539.582031 402.34375 540.535156 403.347656 541.542969 C 404.355469 542.546875 405.308594 543.601562 406.214844 544.703125 C 407.117188 545.800781 407.960938 546.941406 408.753906 548.125 C 409.542969 549.308594 410.273438 550.527344 410.945312 551.78125 C 411.617188 553.039062 412.222656 554.324219 412.769531 555.636719 C 413.3125 556.953125 413.792969 558.289062 414.203125 559.652344 C 414.617188 561.011719 414.964844 562.390625 415.242188 563.789062 C 415.519531 565.183594 415.726562 566.589844 415.867188 568.003906 C 416.007812 569.421875 416.074219 570.839844 416.074219 572.261719 C 416.074219 573.6875 416.007812 575.105469 415.867188 576.519531 C 415.726562 577.9375 415.519531 579.339844 415.242188 580.738281 C 414.964844 582.132812 414.617188 583.507812 414.207031 584.871094 C 413.792969 586.230469 413.316406 587.570312 412.769531 588.882812 C 412.226562 590.199219 411.617188 591.484375 410.949219 592.738281 C 410.277344 593.992188 409.546875 595.210938 408.757812 596.394531 C 407.96875 597.574219 407.121094 598.71875 406.21875 599.816406 C 405.316406 600.917969 404.363281 601.96875 403.359375 602.976562 C 402.351562 603.980469 401.300781 604.9375 400.199219 605.839844 C 399.101562 606.742188 397.960938 607.589844 396.777344 608.378906 C 395.59375 609.167969 394.375 609.898438 393.121094 610.570312 C 391.867188 611.242188 390.585938 611.847656 389.269531 612.394531 C 387.957031 612.9375 386.617188 613.417969 385.257812 613.832031 C 383.894531 614.246094 382.519531 614.589844 381.125 614.867188 C 379.726562 615.144531 378.324219 615.355469 376.90625 615.496094 C 375.492188 615.636719 374.074219 615.707031 372.652344 615.707031 Z M 445.039062 551.867188 C 444.5625 551.867188 444.089844 551.820312 443.621094 551.730469 C 443.152344 551.636719 442.699219 551.5 442.257812 551.320312 C 441.820312 551.136719 441.398438 550.914062 441.003906 550.652344 C 440.605469 550.386719 440.238281 550.085938 439.902344 549.75 C 439.566406 549.414062 439.261719 549.046875 438.996094 548.652344 C 438.734375 548.257812 438.507812 547.839844 438.324219 547.398438 C 438.144531 546.957031 438.003906 546.503906 437.910156 546.039062 C 437.816406 545.570312 437.769531 545.097656 437.769531 544.621094 C 437.769531 544.144531 437.816406 543.671875 437.910156 543.207031 C 438 542.738281 438.140625 542.285156 438.320312 541.84375 C 438.503906 541.40625 438.726562 540.984375 438.992188 540.589844 C 439.257812 540.195312 439.558594 539.828125 439.894531 539.488281 C 440.230469 539.152344 440.597656 538.851562 440.992188 538.585938 C 441.390625 538.324219 441.808594 538.101562 442.25 537.917969 C 442.6875 537.734375 443.144531 537.597656 443.609375 537.503906 C 444.078125 537.414062 444.550781 537.367188 445.027344 537.367188 C 445.503906 537.367188 445.972656 537.414062 446.441406 537.507812 C 446.910156 537.601562 447.363281 537.738281 447.800781 537.921875 C 448.242188 538.105469 448.660156 538.328125 449.054688 538.59375 C 449.453125 538.859375 449.816406 539.160156 450.15625 539.5 C 450.492188 539.835938 450.789062 540.203125 451.054688 540.601562 C 451.320312 540.996094 451.542969 541.414062 451.722656 541.855469 C 451.90625 542.296875 452.042969 542.75 452.132812 543.21875 C 452.226562 543.683594 452.269531 544.15625 452.269531 544.632812 C 452.269531 545.109375 452.222656 545.578125 452.128906 546.042969 C 452.039062 546.511719 451.902344 546.960938 451.71875 547.402344 C 451.535156 547.839844 451.3125 548.257812 451.050781 548.652344 C 450.785156 549.046875 450.488281 549.410156 450.152344 549.746094 C 449.816406 550.082031 449.449219 550.382812 449.054688 550.648438 C 448.660156 550.910156 448.242188 551.132812 447.804688 551.316406 C 447.367188 551.496094 446.914062 551.632812 446.449219 551.726562 C 445.984375 551.820312 445.511719 551.867188 445.039062 551.867188 Z M 445.039062 551.867188 " fill-opacity="1" fill-rule="nonzero"/></g><path fill="#8f74c4" d="M 402.925781 572.261719 C 402.925781 573.253906 402.878906 574.242188 402.78125 575.230469 C 402.683594 576.21875 402.539062 577.199219 402.34375 578.171875 C 402.152344 579.140625 401.910156 580.101562 401.625 581.050781 C 401.335938 582 401.003906 582.933594 400.621094 583.851562 C 400.242188 584.765625 399.820312 585.660156 399.351562 586.535156 C 398.886719 587.410156 398.375 588.257812 397.824219 589.085938 C 397.273438 589.910156 396.683594 590.703125 396.054688 591.46875 C 395.425781 592.238281 394.761719 592.972656 394.058594 593.671875 C 393.359375 594.375 392.625 595.039062 391.859375 595.667969 C 391.089844 596.296875 390.296875 596.886719 389.472656 597.4375 C 388.648438 597.988281 387.796875 598.496094 386.921875 598.964844 C 386.046875 599.433594 385.152344 599.855469 384.238281 600.234375 C 383.320312 600.613281 382.386719 600.949219 381.4375 601.234375 C 380.492188 601.523438 379.53125 601.765625 378.558594 601.957031 C 377.585938 602.152344 376.605469 602.296875 375.617188 602.394531 C 374.632812 602.492188 373.640625 602.539062 372.652344 602.539062 C 371.660156 602.539062 370.667969 602.492188 369.683594 602.394531 C 368.695312 602.296875 367.714844 602.152344 366.742188 601.957031 C 365.769531 601.765625 364.8125 601.523438 363.863281 601.234375 C 362.914062 600.949219 361.980469 600.613281 361.0625 600.234375 C 360.148438 599.855469 359.253906 599.433594 358.378906 598.964844 C 357.503906 598.496094 356.652344 597.988281 355.828125 597.4375 C 355.003906 596.886719 354.210938 596.296875 353.441406 595.667969 C 352.675781 595.039062 351.941406 594.375 351.242188 593.671875 C 350.539062 592.972656 349.875 592.238281 349.246094 591.46875 C 348.617188 590.703125 348.027344 589.910156 347.476562 589.085938 C 346.925781 588.257812 346.417969 587.410156 345.949219 586.535156 C 345.480469 585.660156 345.058594 584.765625 344.679688 583.851562 C 344.300781 582.933594 343.964844 582 343.675781 581.050781 C 343.390625 580.101562 343.148438 579.140625 342.957031 578.171875 C 342.761719 577.199219 342.617188 576.21875 342.519531 575.230469 C 342.421875 574.242188 342.375 573.253906 342.375 572.261719 C 342.375 571.273438 342.421875 570.28125 342.519531 569.296875 C 342.617188 568.308594 342.761719 567.328125 342.957031 566.355469 C 343.148438 565.382812 343.390625 564.421875 343.675781 563.472656 C 343.964844 562.527344 344.300781 561.59375 344.679688 560.675781 C 345.058594 559.761719 345.480469 558.867188 345.949219 557.992188 C 346.417969 557.117188 346.925781 556.265625 347.476562 555.441406 C 348.027344 554.617188 348.617188 553.824219 349.246094 553.054688 C 349.875 552.289062 350.539062 551.554688 351.242188 550.855469 C 351.941406 550.152344 352.675781 549.488281 353.441406 548.859375 C 354.210938 548.230469 355.003906 547.640625 355.828125 547.089844 C 356.652344 546.539062 357.503906 546.027344 358.378906 545.5625 C 359.253906 545.09375 360.148438 544.671875 361.0625 544.292969 C 361.980469 543.910156 362.914062 543.578125 363.863281 543.289062 C 364.8125 543.003906 365.769531 542.761719 366.742188 542.566406 C 367.714844 542.375 368.695312 542.230469 369.683594 542.132812 C 370.667969 542.035156 371.660156 541.988281 372.652344 541.988281 C 373.640625 541.988281 374.632812 542.035156 375.617188 542.132812 C 376.605469 542.230469 377.585938 542.375 378.558594 542.566406 C 379.53125 542.761719 380.492188 543.003906 381.441406 543.289062 C 382.386719 543.578125 383.320312 543.910156 384.238281 544.292969 C 385.152344 544.671875 386.046875 545.09375 386.921875 545.5625 C 387.796875 546.027344 388.648438 546.539062 389.472656 547.089844 C 390.296875 547.640625 391.089844 548.230469 391.859375 548.859375 C 392.625 549.488281 393.359375 550.152344 394.058594 550.855469 C 394.761719 551.554688 395.425781 552.289062 396.054688 553.054688 C 396.683594 553.824219 397.273438 554.617188 397.824219 555.441406 C 398.375 556.265625 398.886719 557.117188 399.351562 557.992188 C 399.820312 558.867188 400.242188 559.761719 400.621094 560.675781 C 401.003906 561.59375 401.335938 562.527344 401.625 563.472656 C 401.910156 564.421875 402.152344 565.382812 402.34375 566.355469 C 402.539062 567.328125 402.683594 568.308594 402.78125 569.296875 C 402.878906 570.28125 402.925781 571.273438 402.925781 572.261719 Z M 402.925781 572.261719 " fill-opacity="1" fill-rule="nonzero"/><g clip-path="url(#c32995e6e6)"><path fill="#000000" d="M 456.039062 515.195312 L 417.117188 515.195312 L 415.800781 505.890625 L 414.792969 499.617188 C 414.386719 497.09375 413.046875 494.996094 410.949219 493.246094 C 408.800781 491.457031 406.503906 490.515625 403.976562 490.515625 L 340.695312 490.515625 C 338.167969 490.515625 335.839844 491.425781 333.71875 493.246094 C 331.59375 495.066406 330.46875 497.203125 330.078125 499.617188 L 329.066406 505.890625 L 327.652344 515.195312 L 288.933594 515.195312 C 283.777344 515.195312 279.632812 519.34375 279.632812 524.300781 L 279.632812 627.464844 C 279.632812 632.621094 283.777344 636.769531 288.933594 636.769531 L 456.035156 636.769531 C 461.191406 636.769531 465.335938 632.621094 465.335938 627.464844 L 465.335938 524.300781 C 465.335938 519.34375 461.191406 515.195312 456.035156 515.195312 Z M 454.117188 625.546875 L 290.757812 625.546875 L 290.757812 526.324219 L 327.652344 526.324219 C 333.214844 526.324219 338.015625 522.183594 338.773438 516.816406 L 340.085938 507.511719 L 341.097656 501.746094 L 403.773438 501.746094 L 404.683594 507.511719 L 406.097656 516.816406 C 406.914062 522.175781 411.757812 526.324219 417.117188 526.324219 L 454.117188 526.324219 Z M 454.117188 625.546875 " fill-opacity="1" fill-rule="nonzero"/></g><path fill="#000000" d="M 436.121094 552.722656 C 440.976562 552.722656 445.019531 548.574219 445.019531 543.722656 C 445.019531 538.765625 441.074219 534.617188 436.121094 534.617188 C 431.167969 534.617188 427.226562 538.765625 427.226562 543.722656 C 427.226562 548.574219 431.269531 552.722656 436.121094 552.722656 Z M 436.121094 552.722656 " fill-opacity="1" fill-rule="nonzero"/><path fill="#000000" d="M 372.335938 529.253906 C 360.914062 529.253906 351.003906 533.402344 342.816406 541.59375 C 334.628906 549.785156 330.484375 559.699219 330.484375 571.128906 C 330.484375 582.558594 334.628906 592.46875 342.816406 600.664062 C 351.003906 608.855469 360.914062 612.730469 372.335938 612.902344 C 394.980469 613.234375 414.449219 593.585938 414.183594 571.128906 C 414.046875 559.597656 410.039062 549.785156 401.851562 541.59375 C 393.664062 533.402344 383.859375 529.253906 372.332031 529.253906 Z M 393.96875 592.875 C 388.003906 598.839844 380.828125 601.773438 372.335938 601.773438 C 363.945312 601.773438 356.769531 598.839844 350.800781 592.875 C 344.835938 586.90625 341.90625 579.625 341.90625 571.128906 C 341.90625 562.734375 344.835938 555.449219 350.800781 549.480469 C 356.769531 543.515625 363.945312 540.480469 372.335938 540.480469 C 380.828125 540.480469 388.003906 543.515625 393.96875 549.480469 C 399.933594 555.449219 402.964844 562.734375 402.964844 571.128906 C 402.964844 579.625 399.933594 586.90625 393.96875 592.875 Z M 393.96875 592.875 " fill-opacity="1" fill-rule="nonzero"/><g clip-path="url(#d774c9e1a4)"><path fill="#231f20" d="M 1298.027344 801.972656 L 141.847656 801.972656 C 141.011719 801.972656 140.179688 801.890625 139.355469 801.726562 C 138.53125 801.5625 137.734375 801.320312 136.957031 801 C 136.183594 800.675781 135.445312 800.285156 134.75 799.816406 C 134.050781 799.351562 133.40625 798.820312 132.8125 798.230469 C 132.21875 797.636719 131.6875 796.988281 131.222656 796.292969 C 130.757812 795.59375 130.363281 794.859375 130.042969 794.082031 C 129.71875 793.308594 129.476562 792.507812 129.3125 791.6875 C 129.148438 790.863281 129.070312 790.03125 129.070312 789.191406 L 129.070312 20.574219 C 129.070312 19.734375 129.148438 18.902344 129.3125 18.082031 C 129.476562 17.257812 129.71875 16.457031 130.042969 15.683594 C 130.363281 14.90625 130.757812 14.171875 131.222656 13.472656 C 131.6875 12.777344 132.21875 12.128906 132.8125 11.539062 C 133.40625 10.945312 134.050781 10.414062 134.75 9.949219 C 135.445312 9.480469 136.183594 9.089844 136.957031 8.765625 C 137.734375 8.445312 138.53125 8.203125 139.355469 8.039062 C 140.179688 7.875 141.011719 7.792969 141.847656 7.792969 L 1298.027344 7.792969 C 1298.863281 7.792969 1299.695312 7.875 1300.519531 8.039062 C 1301.34375 8.203125 1302.140625 8.445312 1302.917969 8.765625 C 1303.691406 9.089844 1304.429688 9.480469 1305.125 9.949219 C 1305.824219 10.414062 1306.46875 10.945312 1307.0625 11.539062 C 1307.65625 12.128906 1308.1875 12.777344 1308.652344 13.472656 C 1309.117188 14.171875 1309.511719 14.90625 1309.832031 15.683594 C 1310.15625 16.457031 1310.398438 17.257812 1310.5625 18.082031 C 1310.722656 18.902344 1310.804688 19.734375 1310.804688 20.574219 L 1310.804688 789.191406 C 1310.804688 790.03125 1310.722656 790.863281 1310.5625 791.6875 C 1310.398438 792.507812 1310.15625 793.308594 1309.832031 794.082031 C 1309.511719 794.859375 1309.117188 795.59375 1308.652344 796.292969 C 1308.1875 796.988281 1307.65625 797.636719 1307.0625 798.230469 C 1306.46875 798.820312 1305.824219 799.351562 1305.125 799.816406 C 1304.429688 800.285156 1303.691406 800.675781 1302.917969 801 C 1302.140625 801.320312 1301.34375 801.5625 1300.519531 801.726562 C 1299.695312 801.890625 1298.863281 801.972656 1298.027344 801.972656 Z M 154.628906 776.414062 L 1285.246094 776.414062 L 1285.246094 33.351562 L 154.628906 33.351562 Z M 154.628906 776.414062 " fill-opacity="1" fill-rule="nonzero"/></g></svg>