<svg xmlns="http://www.w3.org/2000/svg" xmlns:xlink="http://www.w3.org/1999/xlink" width="1920" zoomAndPan="magnify" viewBox="0 0 1440 809.999993" height="1080" preserveAspectRatio="xMidYMid meet" version="1.0"><defs><g/><clipPath id="b1c6ba71e0"><path d="M 1134 192 L 1225 192 L 1225 287 L 1134 287 Z M 1134 192 " clip-rule="nonzero"/></clipPath><clipPath id="48a4445333"><path d="M 1121.03125 215.574219 L 1211.269531 185.089844 L 1237.671875 263.25 L 1147.433594 293.734375 Z M 1121.03125 215.574219 " clip-rule="nonzero"/></clipPath><clipPath id="602998956c"><path d="M 1121.03125 215.574219 L 1211.269531 185.089844 L 1237.671875 263.25 L 1147.433594 293.734375 Z M 1121.03125 215.574219 " clip-rule="nonzero"/></clipPath><clipPath id="b5aceab481"><path d="M 1134 192 L 1225 192 L 1225 287 L 1134 287 Z M 1134 192 " clip-rule="nonzero"/></clipPath><clipPath id="e044f3437d"><path d="M 1120.667969 215.695312 L 1211.621094 184.972656 L 1238.261719 263.84375 L 1147.3125 294.566406 Z M 1120.667969 215.695312 " clip-rule="nonzero"/></clipPath><clipPath id="b511394625"><path d="M 1120.667969 215.695312 L 1211.621094 184.972656 L 1238.261719 263.84375 L 1147.3125 294.566406 Z M 1120.667969 215.695312 " clip-rule="nonzero"/></clipPath><clipPath id="a279fdd8a2"><path d="M 1120.667969 215.695312 L 1211.621094 184.972656 L 1238.261719 263.84375 L 1147.3125 294.566406 Z M 1120.667969 215.695312 " clip-rule="nonzero"/></clipPath><clipPath id="07bd74c2d0"><path d="M 1117 265 L 1209 265 L 1209 360 L 1117 360 Z M 1117 265 " clip-rule="nonzero"/></clipPath><clipPath id="d47eecdeb8"><path d="M 1104.441406 288.332031 L 1194.683594 257.847656 L 1221.085938 336.007812 L 1130.84375 366.492188 Z M 1104.441406 288.332031 " clip-rule="nonzero"/></clipPath><clipPath id="3e199f201d"><path d="M 1104.441406 288.332031 L 1194.683594 257.847656 L 1221.085938 336.007812 L 1130.84375 366.492188 Z M 1104.441406 288.332031 " clip-rule="nonzero"/></clipPath><clipPath id="1e004abb01"><path d="M 1117 265 L 1209 265 L 1209 360 L 1117 360 Z M 1117 265 " clip-rule="nonzero"/></clipPath><clipPath id="a8781d4956"><path d="M 1104.078125 288.453125 L 1195.03125 257.730469 L 1221.671875 336.601562 L 1130.722656 367.324219 Z M 1104.078125 288.453125 " clip-rule="nonzero"/></clipPath><clipPath id="e34c122edf"><path d="M 1104.078125 288.453125 L 1195.03125 257.730469 L 1221.671875 336.601562 L 1130.722656 367.324219 Z M 1104.078125 288.453125 " clip-rule="nonzero"/></clipPath><clipPath id="0466acae21"><path d="M 1104.078125 288.453125 L 1195.03125 257.730469 L 1221.671875 336.601562 L 1130.722656 367.324219 Z M 1104.078125 288.453125 " clip-rule="nonzero"/></clipPath><clipPath id="da54f73cca"><path d="M 1108 334 L 1199 334 L 1199 429 L 1108 429 Z M 1108 334 " clip-rule="nonzero"/></clipPath><clipPath id="1ca7e9efe5"><path d="M 1095.164062 357.792969 L 1185.40625 327.3125 L 1211.808594 405.472656 L 1121.566406 435.957031 Z M 1095.164062 357.792969 " clip-rule="nonzero"/></clipPath><clipPath id="a660a87256"><path d="M 1095.164062 357.792969 L 1185.40625 327.3125 L 1211.808594 405.472656 L 1121.566406 435.957031 Z M 1095.164062 357.792969 " clip-rule="nonzero"/></clipPath><clipPath id="19705262f3"><path d="M 1108 334 L 1200 334 L 1200 430 L 1108 430 Z M 1108 334 " clip-rule="nonzero"/></clipPath><clipPath id="130e7dfbe4"><path d="M 1094.800781 357.917969 L 1185.753906 327.195312 L 1212.394531 406.066406 L 1121.445312 436.789062 Z M 1094.800781 357.917969 " clip-rule="nonzero"/></clipPath><clipPath id="00e81e4dd2"><path d="M 1094.800781 357.917969 L 1185.753906 327.195312 L 1212.394531 406.066406 L 1121.445312 436.789062 Z M 1094.800781 357.917969 " clip-rule="nonzero"/></clipPath><clipPath id="72eaf69f43"><path d="M 1094.800781 357.917969 L 1185.753906 327.195312 L 1212.394531 406.066406 L 1121.445312 436.789062 Z M 1094.800781 357.917969 " clip-rule="nonzero"/></clipPath><clipPath id="cbc257f6c1"><path d="M 1055 286 L 1146 286 L 1146 381 L 1055 381 Z M 1055 286 " clip-rule="nonzero"/></clipPath><clipPath id="3ef56bd59e"><path d="M 1041.882812 309.460938 L 1132.125 278.980469 L 1158.527344 357.140625 L 1068.285156 387.625 Z M 1041.882812 309.460938 " clip-rule="nonzero"/></clipPath><clipPath id="cc6cf2178d"><path d="M 1041.882812 309.460938 L 1132.125 278.980469 L 1158.527344 357.140625 L 1068.285156 387.625 Z M 1041.882812 309.460938 " clip-rule="nonzero"/></clipPath><clipPath id="e407fd6ee6"><path d="M 1054 286 L 1146 286 L 1146 381 L 1054 381 Z M 1054 286 " clip-rule="nonzero"/></clipPath><clipPath id="df51d2feee"><path d="M 1041.523438 309.585938 L 1132.472656 278.863281 L 1159.117188 357.734375 L 1068.164062 388.457031 Z M 1041.523438 309.585938 " clip-rule="nonzero"/></clipPath><clipPath id="731a603690"><path d="M 1041.523438 309.585938 L 1132.472656 278.863281 L 1159.117188 357.734375 L 1068.164062 388.457031 Z M 1041.523438 309.585938 " clip-rule="nonzero"/></clipPath><clipPath id="f100680de9"><path d="M 1041.523438 309.585938 L 1132.472656 278.863281 L 1159.117188 357.734375 L 1068.164062 388.457031 Z M 1041.523438 309.585938 " clip-rule="nonzero"/></clipPath><clipPath id="b0cb3f7d15"><path d="M 1010 228 L 1101 228 L 1101 322 L 1010 322 Z M 1010 228 " clip-rule="nonzero"/></clipPath><clipPath id="2b95aad365"><path d="M 997.21875 251 L 1087.457031 220.515625 L 1113.859375 298.679688 L 1023.621094 329.160156 Z M 997.21875 251 " clip-rule="nonzero"/></clipPath><clipPath id="bb552fa4e9"><path d="M 997.21875 251 L 1087.457031 220.515625 L 1113.859375 298.679688 L 1023.621094 329.160156 Z M 997.21875 251 " clip-rule="nonzero"/></clipPath><clipPath id="fe1702c88c"><path d="M 1010 228 L 1102 228 L 1102 323 L 1010 323 Z M 1010 228 " clip-rule="nonzero"/></clipPath><clipPath id="7085e79d27"><path d="M 996.855469 251.121094 L 1087.808594 220.398438 L 1114.449219 299.269531 L 1023.496094 329.992188 Z M 996.855469 251.121094 " clip-rule="nonzero"/></clipPath><clipPath id="24a26a3c6c"><path d="M 996.855469 251.121094 L 1087.808594 220.398438 L 1114.449219 299.269531 L 1023.496094 329.992188 Z M 996.855469 251.121094 " clip-rule="nonzero"/></clipPath><clipPath id="1250d484a9"><path d="M 996.855469 251.121094 L 1087.808594 220.398438 L 1114.449219 299.269531 L 1023.496094 329.992188 Z M 996.855469 251.121094 " clip-rule="nonzero"/></clipPath><clipPath id="2a9cc13e6d"><path d="M 1076 212 L 1167 212 L 1167 306 L 1076 306 Z M 1076 212 " clip-rule="nonzero"/></clipPath><clipPath id="eecb53fd4d"><path d="M 1062.886719 235.210938 L 1153.128906 204.730469 L 1179.53125 282.890625 L 1089.289062 313.375 Z M 1062.886719 235.210938 " clip-rule="nonzero"/></clipPath><clipPath id="7435a02e3c"><path d="M 1062.886719 235.210938 L 1153.128906 204.730469 L 1179.53125 282.890625 L 1089.289062 313.375 Z M 1062.886719 235.210938 " clip-rule="nonzero"/></clipPath><clipPath id="4d9b89a57d"><path d="M 1075 212 L 1167 212 L 1167 307 L 1075 307 Z M 1075 212 " clip-rule="nonzero"/></clipPath><clipPath id="af23936097"><path d="M 1062.527344 235.335938 L 1153.476562 204.613281 L 1180.121094 283.484375 L 1089.167969 314.207031 Z M 1062.527344 235.335938 " clip-rule="nonzero"/></clipPath><clipPath id="98c42ddfc9"><path d="M 1062.527344 235.335938 L 1153.476562 204.613281 L 1180.121094 283.484375 L 1089.167969 314.207031 Z M 1062.527344 235.335938 " clip-rule="nonzero"/></clipPath><clipPath id="60c5689322"><path d="M 1062.527344 235.335938 L 1153.476562 204.613281 L 1180.121094 283.484375 L 1089.167969 314.207031 Z M 1062.527344 235.335938 " clip-rule="nonzero"/></clipPath><clipPath id="b95b8f4d3c"><path d="M 968 111 L 1250 111 L 1250 282 L 968 282 Z M 968 111 " clip-rule="nonzero"/></clipPath><clipPath id="c03c7ef72b"><path d="M 933.527344 172.742188 L 1212.777344 78.414062 L 1249.5 187.128906 L 970.25 281.457031 Z M 933.527344 172.742188 " clip-rule="nonzero"/></clipPath><clipPath id="2fdf94e495"><path d="M 933.527344 172.742188 L 1212.777344 78.414062 L 1344.308594 467.796875 L 1065.058594 562.125 Z M 933.527344 172.742188 " clip-rule="nonzero"/></clipPath><clipPath id="899895c39e"><path d="M 175 410 L 312 410 L 312 547 L 175 547 Z M 175 410 " clip-rule="nonzero"/></clipPath><clipPath id="e96f251aee"><path d="M 146.230469 513.328125 L 277.753906 381.804688 L 353.0625 457.113281 L 221.539062 588.632812 Z M 146.230469 513.328125 " clip-rule="nonzero"/></clipPath><clipPath id="cd11c4411b"><path d="M 146.230469 513.328125 L 277.753906 381.804688 L 373.742188 477.796875 L 242.222656 609.316406 Z M 146.230469 513.328125 " clip-rule="nonzero"/></clipPath><clipPath id="e418829f05"><path d="M 212 447 L 312 447 L 312 547 L 212 547 Z M 212 447 " clip-rule="nonzero"/></clipPath><clipPath id="d49edcdd20"><path d="M 146.230469 513.328125 L 277.753906 381.804688 L 353.0625 457.113281 L 221.539062 588.632812 Z M 146.230469 513.328125 " clip-rule="nonzero"/></clipPath><clipPath id="0cc6aa6e03"><path d="M 146.230469 513.328125 L 277.753906 381.804688 L 373.742188 477.796875 L 242.222656 609.316406 Z M 146.230469 513.328125 " clip-rule="nonzero"/></clipPath><clipPath id="fcc5f93914"><path d="M 247 482 L 312 482 L 312 547 L 247 547 Z M 247 482 " clip-rule="nonzero"/></clipPath><clipPath id="f00ac28429"><path d="M 146.230469 513.328125 L 277.753906 381.804688 L 353.0625 457.113281 L 221.539062 588.632812 Z M 146.230469 513.328125 " clip-rule="nonzero"/></clipPath><clipPath id="df1c5d70be"><path d="M 146.230469 513.328125 L 277.753906 381.804688 L 373.742188 477.796875 L 242.222656 609.316406 Z M 146.230469 513.328125 " clip-rule="nonzero"/></clipPath><clipPath id="7415dc547a"><path d="M 283.808594 499 L 461.558594 499 L 461.558594 628.613281 L 283.808594 628.613281 Z M 283.808594 499 " clip-rule="nonzero"/></clipPath><clipPath id="9dbb4cde8c"><path d="M 279.632812 490.460938 L 465.632812 490.460938 L 465.632812 636.710938 L 279.632812 636.710938 Z M 279.632812 490.460938 " clip-rule="nonzero"/></clipPath><clipPath id="4d94a8c6cf"><path d="M 129 7.792969 L 1311 7.792969 L 1311 802.042969 L 129 802.042969 Z M 129 7.792969 " clip-rule="nonzero"/></clipPath></defs><g fill="#ffffff" fill-opacity="1"><g transform="translate(133.304688, 381.292585)"><g><path d="M 130.421875 3.4375 C 108.398438 3.4375 89.53125 -1.722656 73.8125 -12.046875 C 58.101562 -22.367188 46.117188 -36.707031 37.859375 -55.0625 C 29.597656 -73.414062 25.46875 -94.640625 25.46875 -118.734375 C 25.46875 -143.503906 29.425781 -165.351562 37.34375 -184.28125 C 45.257812 -203.207031 57.015625 -217.945312 72.609375 -228.5 C 88.210938 -239.0625 107.484375 -244.34375 130.421875 -244.34375 C 151.992188 -244.34375 169.945312 -240.097656 184.28125 -231.609375 C 198.625 -223.117188 209.46875 -211.070312 216.8125 -195.46875 L 223.6875 -240.890625 L 236.765625 -240.890625 L 236.765625 -167.9375 L 212.328125 -167.9375 C 207.515625 -187.207031 198.453125 -202.632812 185.140625 -214.21875 C 171.835938 -225.8125 154.863281 -231.609375 134.21875 -231.609375 C 115.632812 -231.609375 100.03125 -226.960938 87.40625 -217.671875 C 74.789062 -208.378906 65.328125 -195.414062 59.015625 -178.78125 C 52.710938 -162.144531 49.5625 -142.816406 49.5625 -120.796875 C 49.5625 -98.078125 52.828125 -78.398438 59.359375 -61.765625 C 65.898438 -45.140625 75.648438 -32.296875 88.609375 -23.234375 C 101.578125 -14.171875 117.46875 -9.640625 136.28125 -9.640625 C 153.945312 -9.640625 168.398438 -13.25 179.640625 -20.46875 C 190.878906 -27.695312 199.132812 -37.617188 204.40625 -50.234375 C 209.6875 -62.859375 212.328125 -77.203125 212.328125 -93.265625 L 212.328125 -105.3125 C 212.328125 -109.664062 210.265625 -111.84375 206.140625 -111.84375 L 149.359375 -111.84375 L 149.359375 -124.921875 L 236.421875 -124.921875 L 236.421875 -19.265625 C 236.421875 -15.140625 238.601562 -13.078125 242.96875 -13.078125 L 258.796875 -13.078125 L 258.796875 0 L 212.328125 0 L 212.328125 -47.484375 C 206.597656 -31.660156 197.019531 -19.21875 183.59375 -10.15625 C 170.175781 -1.09375 152.453125 3.4375 130.421875 3.4375 Z M 130.421875 3.4375 "/></g></g></g><g fill="#ffffff" fill-opacity="1"><g transform="translate(360.438835, 381.292585)"><g><path d="M 26.15625 0 L 26.15625 -11.359375 L 42.328125 -11.359375 C 46.460938 -11.359375 48.53125 -13.421875 48.53125 -17.546875 L 48.53125 -154.515625 C 48.53125 -158.878906 46.460938 -161.0625 42.328125 -161.0625 L 26.15625 -161.0625 L 26.15625 -172.0625 L 70.890625 -172.0625 L 70.890625 -140.0625 C 75.484375 -150.84375 82.082031 -159.445312 90.6875 -165.875 C 99.289062 -172.300781 109.898438 -175.515625 122.515625 -175.515625 C 138.804688 -175.515625 151.367188 -170.984375 160.203125 -161.921875 C 169.035156 -152.859375 173.453125 -140.410156 173.453125 -124.578125 L 173.453125 -115.96875 L 151.078125 -115.96875 L 151.078125 -123.546875 C 151.078125 -135.703125 148.035156 -145.164062 141.953125 -151.9375 C 135.878906 -158.707031 126.988281 -162.09375 115.28125 -162.09375 C 101.289062 -162.09375 90.394531 -156.582031 82.59375 -145.5625 C 74.789062 -134.550781 70.890625 -119.867188 70.890625 -101.515625 L 70.890625 -17.546875 C 70.890625 -13.421875 73.070312 -11.359375 77.4375 -11.359375 L 93.265625 -11.359375 L 93.265625 0 Z M 26.15625 0 "/></g></g></g><g fill="#ffffff" fill-opacity="1"><g transform="translate(494.654067, 381.292585)"><g><path d="M 146.265625 -126.984375 C 146.265625 -139.148438 142.25 -148.441406 134.21875 -154.859375 C 126.1875 -161.285156 115.171875 -164.5 101.171875 -164.5 C 86.953125 -164.5 75.882812 -161.285156 67.96875 -154.859375 C 60.050781 -148.441406 56.09375 -139.148438 56.09375 -126.984375 L 56.09375 -119.421875 L 33.71875 -119.421875 L 33.71875 -172.0625 L 45.078125 -172.0625 L 49.90625 -149.015625 C 58.851562 -166.679688 77.550781 -175.515625 106 -175.515625 C 125.726562 -175.515625 141.097656 -171.15625 152.109375 -162.4375 C 163.117188 -153.71875 168.625 -141.554688 168.625 -125.953125 L 168.625 -17.546875 C 168.625 -13.421875 170.804688 -11.359375 175.171875 -11.359375 L 191 -11.359375 L 191 0 L 146.265625 0 L 146.265625 -39.234375 C 140.753906 -26.148438 132.550781 -15.765625 121.65625 -8.078125 C 110.757812 -0.398438 97.625 3.4375 82.25 3.4375 C 65.5 3.4375 52.078125 -1.035156 41.984375 -9.984375 C 31.890625 -18.929688 26.84375 -31.316406 26.84375 -47.140625 C 26.84375 -65.953125 32.921875 -80.234375 45.078125 -89.984375 C 57.242188 -99.742188 73.535156 -104.625 93.953125 -104.625 L 146.265625 -104.625 Z M 49.21875 -49.21875 C 49.21875 -36.59375 52.882812 -26.894531 60.21875 -20.125 C 67.5625 -13.363281 77.546875 -9.984375 90.171875 -9.984375 C 101.640625 -9.984375 111.5625 -13.019531 119.9375 -19.09375 C 128.3125 -25.175781 134.789062 -33.492188 139.375 -44.046875 C 143.96875 -54.597656 146.265625 -66.644531 146.265625 -80.1875 L 146.265625 -93.265625 L 97.046875 -93.265625 C 82.128906 -93.265625 70.425781 -89.59375 61.9375 -82.25 C 53.457031 -74.90625 49.21875 -63.894531 49.21875 -49.21875 Z M 49.21875 -49.21875 "/></g></g></g><g fill="#ffffff" fill-opacity="1"><g transform="translate(653.647637, 381.292585)"><g><path d="M 125.609375 3.4375 C 110.929688 3.4375 98.3125 -0.398438 87.75 -8.078125 C 77.195312 -15.765625 69.285156 -26.835938 64.015625 -41.296875 L 64.015625 51.28125 C 64.015625 55.632812 66.191406 57.8125 70.546875 57.8125 L 98.421875 57.8125 L 98.421875 68.828125 L 19.265625 68.828125 L 19.265625 57.8125 L 35.453125 57.8125 C 39.578125 57.8125 41.640625 55.632812 41.640625 51.28125 L 41.640625 -154.515625 C 41.640625 -158.878906 39.578125 -161.0625 35.453125 -161.0625 L 19.265625 -161.0625 L 19.265625 -172.0625 L 64.015625 -172.0625 L 64.015625 -130.421875 C 69.285156 -145.109375 77.195312 -156.296875 87.75 -163.984375 C 98.3125 -171.671875 110.929688 -175.515625 125.609375 -175.515625 C 146.710938 -175.515625 163.457031 -167.710938 175.84375 -152.109375 C 188.238281 -136.503906 194.4375 -114.363281 194.4375 -85.6875 C 194.4375 -57.238281 188.238281 -35.269531 175.84375 -19.78125 C 163.457031 -4.300781 146.710938 3.4375 125.609375 3.4375 Z M 64.015625 -85.6875 C 64.015625 -61.832031 68.945312 -43.25 78.8125 -29.9375 C 88.675781 -16.632812 101.640625 -9.984375 117.703125 -9.984375 C 134.210938 -9.984375 147.398438 -16.632812 157.265625 -29.9375 C 167.128906 -43.25 172.0625 -61.832031 172.0625 -85.6875 C 172.0625 -109.78125 167.128906 -128.535156 157.265625 -141.953125 C 147.398438 -155.378906 134.210938 -162.09375 117.703125 -162.09375 C 101.640625 -162.09375 88.675781 -155.378906 78.8125 -141.953125 C 68.945312 -128.535156 64.015625 -109.78125 64.015625 -85.6875 Z M 64.015625 -85.6875 "/></g></g></g><g fill="#ffffff" fill-opacity="1"><g transform="translate(822.277317, 381.292585)"><g><path d="M 106 3.4375 C 88.5625 3.4375 73.875 -0.34375 61.9375 -7.90625 C 50.007812 -15.476562 40.945312 -25.972656 34.75 -39.390625 C 28.5625 -52.816406 25.46875 -68.476562 25.46875 -86.375 C 25.46875 -104.269531 28.503906 -119.867188 34.578125 -133.171875 C 40.660156 -146.484375 49.664062 -156.867188 61.59375 -164.328125 C 73.53125 -171.785156 88.101562 -175.515625 105.3125 -175.515625 C 130.082031 -175.515625 149.460938 -167.484375 163.453125 -151.421875 C 177.453125 -135.359375 184.453125 -113.789062 184.453125 -86.71875 L 184.453125 -82.59375 L 47.828125 -82.59375 C 48.296875 -59.644531 53.460938 -41.460938 63.328125 -28.046875 C 73.191406 -14.628906 87.300781 -7.921875 105.65625 -7.921875 C 119.875 -7.921875 131.515625 -12.046875 140.578125 -20.296875 C 149.640625 -28.554688 156.007812 -40.03125 159.6875 -54.71875 L 181.703125 -54.71875 C 177.347656 -36.59375 168.742188 -22.367188 155.890625 -12.046875 C 143.046875 -1.722656 126.414062 3.4375 106 3.4375 Z M 48.171875 -93.953125 L 162.09375 -93.609375 C 161.40625 -115.171875 156.242188 -132.375 146.609375 -145.21875 C 136.972656 -158.070312 123.207031 -164.5 105.3125 -164.5 C 87.644531 -164.5 73.9375 -158.128906 64.1875 -145.390625 C 54.4375 -132.660156 49.097656 -115.515625 48.171875 -93.953125 Z M 48.171875 -93.953125 "/></g></g></g><g fill="#ffffff" fill-opacity="1"><g transform="translate(980.929518, 381.292585)"><g/></g></g><g fill="#ffffff" fill-opacity="1"><g transform="translate(456.701983, 627.926498)"><g><path d="M 115.640625 3.4375 C 98.203125 3.4375 83.285156 0.285156 70.890625 -6.015625 C 58.503906 -12.328125 49.328125 -21.566406 43.359375 -33.734375 L 37.859375 0 L 25.125 0 L 25.125 -69.171875 L 49.21875 -69.171875 L 49.21875 -67.796875 C 49.21875 -47.835938 54.953125 -33.15625 66.421875 -23.75 C 77.890625 -14.34375 92.800781 -9.640625 111.15625 -9.640625 C 128.820312 -9.640625 143.390625 -14.226562 154.859375 -23.40625 C 166.335938 -32.582031 172.078125 -46.460938 172.078125 -65.046875 C 172.078125 -78.804688 168.863281 -89.585938 162.4375 -97.390625 C 156.019531 -105.191406 145.925781 -110.359375 132.15625 -112.890625 L 80.1875 -122.859375 C 63.4375 -126.304688 50.644531 -133.078125 41.8125 -143.171875 C 32.976562 -153.265625 28.5625 -166.800781 28.5625 -183.78125 C 28.5625 -202.132812 35.15625 -216.816406 48.34375 -227.828125 C 61.539062 -238.835938 80.644531 -244.34375 105.65625 -244.34375 C 122.175781 -244.34375 136.34375 -241.585938 148.15625 -236.078125 C 159.976562 -230.578125 168.753906 -222.320312 174.484375 -211.3125 L 180 -240.90625 L 192.734375 -240.90625 L 192.734375 -178.609375 L 168.640625 -178.609375 L 168.640625 -179.3125 C 168.640625 -197.664062 163.242188 -210.96875 152.453125 -219.21875 C 141.671875 -227.476562 127.445312 -231.609375 109.78125 -231.609375 C 91.882812 -231.609375 77.890625 -227.648438 67.796875 -219.734375 C 57.703125 -211.828125 52.65625 -200.757812 52.65625 -186.53125 C 52.65625 -162.4375 64.816406 -148.097656 89.140625 -143.515625 L 141.453125 -133.53125 C 177.929688 -126.414062 196.171875 -104.960938 196.171875 -69.171875 C 196.171875 -46.234375 188.882812 -28.394531 174.3125 -15.65625 C 159.75 -2.925781 140.191406 3.4375 115.640625 3.4375 Z M 115.640625 3.4375 "/></g></g></g><g fill="#ffffff" fill-opacity="1"><g transform="translate(626.711677, 627.926498)"><g><path d="M 106 3.4375 C 88.5625 3.4375 73.875 -0.34375 61.9375 -7.90625 C 50.007812 -15.476562 40.945312 -25.972656 34.75 -39.390625 C 28.5625 -52.816406 25.46875 -68.484375 25.46875 -86.390625 C 25.46875 -104.285156 28.503906 -119.882812 34.578125 -133.1875 C 40.660156 -146.5 49.664062 -156.878906 61.59375 -164.328125 C 73.53125 -171.785156 88.101562 -175.515625 105.3125 -175.515625 C 130.09375 -175.515625 149.476562 -167.484375 163.46875 -151.421875 C 177.46875 -135.367188 184.46875 -113.804688 184.46875 -86.734375 L 184.46875 -82.59375 L 47.84375 -82.59375 C 48.300781 -59.65625 53.460938 -41.472656 63.328125 -28.046875 C 73.191406 -14.628906 87.300781 -7.921875 105.65625 -7.921875 C 119.882812 -7.921875 131.53125 -12.046875 140.59375 -20.296875 C 149.65625 -28.554688 156.019531 -40.03125 159.6875 -54.71875 L 181.71875 -54.71875 C 177.351562 -36.59375 168.742188 -22.367188 155.890625 -12.046875 C 143.046875 -1.722656 126.414062 3.4375 106 3.4375 Z M 48.1875 -93.953125 L 162.09375 -93.609375 C 161.40625 -115.179688 156.242188 -132.390625 146.609375 -145.234375 C 136.972656 -158.078125 123.207031 -164.5 105.3125 -164.5 C 87.644531 -164.5 73.9375 -158.132812 64.1875 -145.40625 C 54.4375 -132.675781 49.101562 -115.523438 48.1875 -93.953125 Z M 48.1875 -93.953125 "/></g></g></g><g fill="#ffffff" fill-opacity="1"><g transform="translate(785.364408, 627.926498)"><g><path d="M 26.15625 0 L 26.15625 -11.359375 L 42.328125 -11.359375 C 46.460938 -11.359375 48.53125 -13.421875 48.53125 -17.546875 L 48.53125 -154.53125 C 48.53125 -158.882812 46.460938 -161.0625 42.328125 -161.0625 L 26.15625 -161.0625 L 26.15625 -172.078125 L 70.890625 -172.078125 L 70.890625 -129.75 C 76.171875 -144.195312 84.144531 -155.4375 94.8125 -163.46875 C 105.476562 -171.5 118.039062 -175.515625 132.5 -175.515625 C 149.476562 -175.515625 163.414062 -170.640625 174.3125 -160.890625 C 185.207031 -151.140625 190.65625 -137.546875 190.65625 -120.109375 L 190.65625 -17.546875 C 190.65625 -13.421875 192.835938 -11.359375 197.203125 -11.359375 L 213.03125 -11.359375 L 213.03125 0 L 145.921875 0 L 145.921875 -11.359375 L 161.75 -11.359375 C 166.113281 -11.359375 168.296875 -13.421875 168.296875 -17.546875 L 168.296875 -118.390625 C 168.296875 -132.390625 164.335938 -143.113281 156.421875 -150.5625 C 148.503906 -158.019531 138.117188 -161.75 125.265625 -161.75 C 109.441406 -161.75 96.421875 -155.378906 86.203125 -142.640625 C 75.992188 -129.910156 70.890625 -111.960938 70.890625 -88.796875 L 70.890625 -17.546875 C 70.890625 -13.421875 73.070312 -11.359375 77.4375 -11.359375 L 93.265625 -11.359375 L 93.265625 0 Z M 26.15625 0 "/></g></g></g><g fill="#ffffff" fill-opacity="1"><g transform="translate(966.386814, 627.926498)"><g><path d="M 93.953125 3.4375 C 68.710938 3.4375 51.617188 -5.394531 42.671875 -23.0625 L 37.859375 0 L 26.84375 0 L 26.84375 -49.5625 L 48.1875 -49.5625 L 48.1875 -47.84375 C 48.1875 -34.757812 52.082031 -24.832031 59.875 -18.0625 C 67.675781 -11.300781 77.890625 -7.921875 90.515625 -7.921875 C 103.359375 -7.921875 113.507812 -11.359375 120.96875 -18.234375 C 128.425781 -25.117188 132.15625 -34.644531 132.15625 -46.8125 C 132.15625 -55.0625 129.859375 -62 125.265625 -67.625 C 120.679688 -73.25 113.570312 -76.863281 103.9375 -78.46875 L 66.421875 -86.046875 C 56.554688 -88.335938 48.066406 -92.863281 40.953125 -99.625 C 33.835938 -106.394531 30.28125 -116.09375 30.28125 -128.71875 C 30.28125 -144.082031 35.554688 -155.722656 46.109375 -163.640625 C 56.671875 -171.554688 70.328125 -175.515625 87.078125 -175.515625 C 98.773438 -175.515625 108.753906 -173.503906 117.015625 -169.484375 C 125.273438 -165.472656 131.46875 -159.914062 135.59375 -152.8125 L 140.421875 -172.078125 L 151.765625 -172.078125 L 151.765625 -129.40625 L 130.09375 -129.40625 L 130.09375 -131.46875 C 130.09375 -141.5625 126.648438 -149.585938 119.765625 -155.546875 C 112.878906 -161.515625 103.359375 -164.5 91.203125 -164.5 C 79.273438 -164.5 69.867188 -161.742188 62.984375 -156.234375 C 56.097656 -150.734375 52.65625 -142.59375 52.65625 -131.8125 C 52.65625 -123.550781 55.117188 -117.296875 60.046875 -113.046875 C 64.984375 -108.804688 70.4375 -106.113281 76.40625 -104.96875 L 113.578125 -97.046875 C 127.796875 -94.296875 138.175781 -88.90625 144.71875 -80.875 C 151.257812 -72.84375 154.53125 -62.75 154.53125 -50.59375 C 154.53125 -33.15625 149.078125 -19.789062 138.171875 -10.5 C 127.273438 -1.207031 112.535156 3.4375 93.953125 3.4375 Z M 93.953125 3.4375 "/></g></g></g><g fill="#ffffff" fill-opacity="1"><g transform="translate(1096.475101, 627.926498)"><g><path d="M 106 3.4375 C 88.5625 3.4375 73.875 -0.34375 61.9375 -7.90625 C 50.007812 -15.476562 40.945312 -25.972656 34.75 -39.390625 C 28.5625 -52.816406 25.46875 -68.484375 25.46875 -86.390625 C 25.46875 -104.285156 28.503906 -119.882812 34.578125 -133.1875 C 40.660156 -146.5 49.664062 -156.878906 61.59375 -164.328125 C 73.53125 -171.785156 88.101562 -175.515625 105.3125 -175.515625 C 130.09375 -175.515625 149.476562 -167.484375 163.46875 -151.421875 C 177.46875 -135.367188 184.46875 -113.804688 184.46875 -86.734375 L 184.46875 -82.59375 L 47.84375 -82.59375 C 48.300781 -59.65625 53.460938 -41.472656 63.328125 -28.046875 C 73.191406 -14.628906 87.300781 -7.921875 105.65625 -7.921875 C 119.882812 -7.921875 131.53125 -12.046875 140.59375 -20.296875 C 149.65625 -28.554688 156.019531 -40.03125 159.6875 -54.71875 L 181.71875 -54.71875 C 177.351562 -36.59375 168.742188 -22.367188 155.890625 -12.046875 C 143.046875 -1.722656 126.414062 3.4375 106 3.4375 Z M 48.1875 -93.953125 L 162.09375 -93.609375 C 161.40625 -115.179688 156.242188 -132.390625 146.609375 -145.234375 C 136.972656 -158.078125 123.207031 -164.5 105.3125 -164.5 C 87.644531 -164.5 73.9375 -158.132812 64.1875 -145.40625 C 54.4375 -132.675781 49.101562 -115.523438 48.1875 -93.953125 Z M 48.1875 -93.953125 "/></g></g></g><g clip-path="url(#b1c6ba71e0)"><g clip-path="url(#48a4445333)"><g clip-path="url(#602998956c)"><path fill="#8f74c4" d="M 1170.15625 286.292969 L 1134.292969 254.75 L 1143.679688 207.921875 L 1188.929688 192.636719 L 1224.792969 224.179688 L 1215.40625 271.007812 Z M 1170.15625 286.292969 " fill-opacity="1" fill-rule="nonzero"/></g></g></g><g clip-path="url(#b5aceab481)"><g clip-path="url(#e044f3437d)"><g clip-path="url(#b511394625)"><g clip-path="url(#a279fdd8a2)"><path fill="#ffffff" d="M 1188.210938 195.921875 L 1221.75 225.484375 L 1213.003906 269.332031 L 1170.722656 283.613281 L 1137.164062 254.058594 L 1145.925781 210.207031 L 1188.210938 195.921875 M 1188.867188 192.65625 L 1143.421875 208.007812 L 1134.019531 255.121094 L 1170.0625 286.878906 L 1215.511719 271.527344 L 1224.914062 224.417969 Z M 1188.867188 192.65625 " fill-opacity="1" fill-rule="nonzero"/></g></g></g></g><g clip-path="url(#07bd74c2d0)"><g clip-path="url(#d47eecdeb8)"><g clip-path="url(#3e199f201d)"><path fill="#8f74c4" d="M 1153.566406 359.050781 L 1117.703125 327.507812 L 1127.09375 280.679688 L 1172.339844 265.394531 L 1208.203125 296.9375 L 1198.816406 343.765625 Z M 1153.566406 359.050781 " fill-opacity="1" fill-rule="nonzero"/></g></g></g><g clip-path="url(#1e004abb01)"><g clip-path="url(#a8781d4956)"><g clip-path="url(#e34c122edf)"><g clip-path="url(#0466acae21)"><path fill="#ffffff" d="M 1171.621094 268.683594 L 1205.160156 298.242188 L 1196.417969 342.089844 L 1154.132812 356.371094 L 1120.574219 326.816406 L 1129.335938 282.964844 L 1171.621094 268.683594 M 1172.277344 265.414062 L 1126.832031 280.765625 L 1117.429688 327.878906 L 1153.472656 359.640625 L 1198.921875 344.285156 L 1208.324219 297.175781 Z M 1172.277344 265.414062 " fill-opacity="1" fill-rule="nonzero"/></g></g></g></g><g clip-path="url(#da54f73cca)"><g clip-path="url(#1ca7e9efe5)"><g clip-path="url(#a660a87256)"><path fill="#8f74c4" d="M 1144.289062 428.515625 L 1108.425781 396.972656 L 1117.816406 350.144531 L 1163.066406 334.859375 L 1198.925781 366.402344 L 1189.539062 413.230469 Z M 1144.289062 428.515625 " fill-opacity="1" fill-rule="nonzero"/></g></g></g><g clip-path="url(#19705262f3)"><g clip-path="url(#130e7dfbe4)"><g clip-path="url(#00e81e4dd2)"><g clip-path="url(#72eaf69f43)"><path fill="#ffffff" d="M 1162.34375 338.144531 L 1195.882812 367.707031 L 1187.140625 411.550781 L 1144.855469 425.835938 L 1111.296875 396.28125 L 1120.058594 352.429688 L 1162.34375 338.144531 M 1163 334.878906 L 1117.554688 350.230469 L 1108.152344 397.34375 L 1144.195312 429.101562 L 1189.644531 413.75 L 1199.046875 366.640625 Z M 1163 334.878906 " fill-opacity="1" fill-rule="nonzero"/></g></g></g></g><g clip-path="url(#cbc257f6c1)"><g clip-path="url(#3ef56bd59e)"><g clip-path="url(#cc6cf2178d)"><path fill="#8f74c4" d="M 1091.007812 380.183594 L 1055.148438 348.640625 L 1064.535156 301.8125 L 1109.785156 286.527344 L 1145.644531 318.070312 L 1136.257812 364.898438 Z M 1091.007812 380.183594 " fill-opacity="1" fill-rule="nonzero"/></g></g></g><g clip-path="url(#e407fd6ee6)"><g clip-path="url(#df51d2feee)"><g clip-path="url(#731a603690)"><g clip-path="url(#f100680de9)"><path fill="#ffffff" d="M 1109.0625 289.8125 L 1142.601562 319.375 L 1133.859375 363.21875 L 1091.574219 377.503906 L 1058.015625 347.949219 L 1066.777344 304.097656 L 1109.0625 289.8125 M 1109.722656 286.546875 L 1064.273438 301.898438 L 1054.871094 349.011719 L 1090.917969 380.769531 L 1136.363281 365.417969 L 1145.765625 318.308594 Z M 1109.722656 286.546875 " fill-opacity="1" fill-rule="nonzero"/></g></g></g></g><g clip-path="url(#b0cb3f7d15)"><g clip-path="url(#2b95aad365)"><g clip-path="url(#bb552fa4e9)"><path fill="#8f74c4" d="M 1046.34375 321.71875 L 1010.480469 290.175781 L 1019.867188 243.347656 L 1065.117188 228.0625 L 1100.980469 259.605469 L 1091.589844 306.433594 Z M 1046.34375 321.71875 " fill-opacity="1" fill-rule="nonzero"/></g></g></g><g clip-path="url(#fe1702c88c)"><g clip-path="url(#7085e79d27)"><g clip-path="url(#24a26a3c6c)"><g clip-path="url(#1250d484a9)"><path fill="#ffffff" d="M 1064.394531 231.351562 L 1097.9375 260.910156 L 1089.191406 304.757812 L 1046.910156 319.039062 L 1013.351562 289.484375 L 1022.113281 245.632812 L 1064.394531 231.351562 M 1065.054688 228.082031 L 1019.609375 243.433594 L 1010.203125 290.546875 L 1046.25 322.308594 L 1091.699219 306.957031 L 1101.101562 259.84375 Z M 1065.054688 228.082031 " fill-opacity="1" fill-rule="nonzero"/></g></g></g></g><g clip-path="url(#2a9cc13e6d)"><g clip-path="url(#eecb53fd4d)"><g clip-path="url(#7435a02e3c)"><path fill="#8f74c4" d="M 1112.011719 305.933594 L 1076.152344 274.390625 L 1085.539062 227.5625 L 1130.789062 212.277344 L 1166.648438 243.820312 L 1157.261719 290.648438 Z M 1112.011719 305.933594 " fill-opacity="1" fill-rule="nonzero"/></g></g></g><g clip-path="url(#4d9b89a57d)"><g clip-path="url(#af23936097)"><g clip-path="url(#98c42ddfc9)"><g clip-path="url(#60c5689322)"><path fill="#ffffff" d="M 1130.066406 215.5625 L 1163.605469 245.125 L 1154.863281 288.972656 L 1112.578125 303.253906 L 1079.019531 273.699219 L 1087.78125 229.847656 L 1130.066406 215.5625 M 1130.726562 212.296875 L 1085.277344 227.648438 L 1075.875 274.761719 L 1111.921875 306.519531 L 1157.367188 291.167969 L 1166.769531 244.058594 Z M 1130.726562 212.296875 " fill-opacity="1" fill-rule="nonzero"/></g></g></g></g><g clip-path="url(#b95b8f4d3c)"><g clip-path="url(#c03c7ef72b)"><g clip-path="url(#2fdf94e495)"><path fill="#ffffff" d="M 1255.320312 227.113281 C 1244.304688 215.5625 1228.914062 209.472656 1211.984375 209.964844 C 1204.480469 210.183594 1197.054688 211.515625 1189.914062 213.929688 C 1173.878906 219.347656 1161.121094 229.519531 1153.492188 242.054688 C 1141.578125 237.816406 1128.597656 237.855469 1115.648438 242.230469 C 1115.105469 242.414062 1114.566406 242.621094 1114.027344 242.820312 C 1113.417969 240.742188 1112.765625 238.597656 1112.035156 236.390625 C 1110.8125 232.570312 1109.386719 228.585938 1107.835938 224.488281 C 1106.234375 220.410156 1104.539062 216.203125 1102.589844 212.019531 C 1101.261719 209.0625 1099.804688 206.125 1098.289062 203.199219 C 1113.269531 206.328125 1126.574219 205.941406 1138.078125 202.054688 C 1143.984375 200.058594 1149.417969 197.140625 1154.355469 193.304688 C 1185.015625 169.480469 1184.84375 119.148438 1184.820312 116.90625 C 1184.820312 116.902344 1184.820312 116.902344 1184.820312 116.898438 C 1184.820312 116.890625 1184.820312 116.886719 1184.820312 116.882812 C 1184.820312 116.707031 1184.808594 116.53125 1184.789062 116.359375 C 1184.785156 116.34375 1184.78125 116.328125 1184.78125 116.3125 C 1184.761719 116.152344 1184.738281 115.996094 1184.703125 115.839844 C 1184.691406 115.789062 1184.675781 115.738281 1184.664062 115.683594 C 1184.632812 115.570312 1184.605469 115.453125 1184.570312 115.339844 C 1184.546875 115.269531 1184.515625 115.199219 1184.488281 115.125 C 1184.457031 115.035156 1184.425781 114.945312 1184.390625 114.859375 C 1184.355469 114.785156 1184.320312 114.714844 1184.28125 114.640625 C 1184.242188 114.5625 1184.207031 114.480469 1184.164062 114.402344 C 1184.128906 114.335938 1184.085938 114.277344 1184.046875 114.214844 C 1184 114.128906 1183.949219 114.046875 1183.894531 113.964844 C 1183.863281 113.917969 1183.824219 113.875 1183.792969 113.828125 C 1183.722656 113.738281 1183.65625 113.644531 1183.582031 113.558594 C 1183.5625 113.53125 1183.535156 113.507812 1183.515625 113.480469 C 1183.421875 113.378906 1183.332031 113.277344 1183.234375 113.183594 C 1183.230469 113.175781 1183.222656 113.167969 1183.214844 113.164062 C 1182.378906 112.351562 1181.273438 111.808594 1180.023438 111.695312 C 1177.898438 111.496094 1127.660156 107.195312 1101.394531 135.851562 C 1090.332031 147.917969 1085.277344 163.867188 1086.300781 183.382812 C 1085.910156 182.828125 1085.515625 182.28125 1085.105469 181.746094 C 1084.425781 180.828125 1083.753906 179.910156 1083.082031 179 C 1082.402344 178.101562 1081.675781 177.238281 1080.984375 176.367188 C 1080.28125 175.5 1079.585938 174.636719 1078.898438 173.785156 C 1078.171875 172.960938 1077.449219 172.148438 1076.734375 171.34375 C 1076.019531 170.539062 1075.308594 169.746094 1074.609375 168.960938 C 1073.871094 168.207031 1073.140625 167.464844 1072.417969 166.730469 C 1071.699219 165.996094 1070.988281 165.273438 1070.285156 164.5625 C 1069.546875 163.882812 1068.820312 163.21875 1068.105469 162.5625 C 1066.675781 161.25 1065.300781 159.972656 1063.871094 158.863281 C 1062.457031 157.738281 1061.15625 156.59375 1059.8125 155.632812 C 1058.46875 154.671875 1057.195312 153.757812 1056 152.898438 C 1055.414062 152.460938 1054.800781 152.070312 1054.191406 151.699219 C 1053.589844 151.324219 1053.011719 150.964844 1052.453125 150.617188 C 1051.335938 149.925781 1050.3125 149.292969 1049.386719 148.722656 C 1045.835938 146.824219 1043.804688 145.742188 1043.804688 145.742188 C 1043.761719 145.71875 1043.695312 145.683594 1043.648438 145.660156 C 1041.027344 144.371094 1037.859375 145.449219 1036.574219 148.070312 C 1035.285156 150.6875 1036.363281 153.855469 1038.984375 155.144531 C 1038.984375 155.144531 1041.046875 156.160156 1044.660156 157.9375 C 1045.460938 158.402344 1046.34375 158.914062 1047.308594 159.472656 C 1047.792969 159.753906 1048.292969 160.042969 1048.8125 160.34375 C 1049.335938 160.632812 1049.878906 160.953125 1050.429688 161.339844 C 1051.535156 162.078125 1052.714844 162.863281 1053.957031 163.691406 C 1055.203125 164.515625 1056.414062 165.527344 1057.738281 166.503906 C 1059.074219 167.464844 1060.367188 168.59375 1061.71875 169.753906 C 1062.394531 170.332031 1063.082031 170.917969 1063.785156 171.515625 C 1064.449219 172.152344 1065.128906 172.796875 1065.8125 173.449219 C 1066.5 174.105469 1067.199219 174.769531 1067.902344 175.4375 C 1068.578125 176.144531 1069.257812 176.859375 1069.945312 177.582031 C 1070.230469 177.882812 1070.519531 178.1875 1070.808594 178.488281 C 1059.566406 172.167969 1047.957031 169.578125 1036.089844 170.777344 C 997.519531 174.683594 970.957031 217.308594 969.714844 219.335938 C 969.523438 219.648438 969.363281 219.976562 969.242188 220.3125 C 969.234375 220.339844 969.226562 220.367188 969.21875 220.394531 C 969.171875 220.53125 969.125 220.667969 969.089844 220.808594 C 969.074219 220.867188 969.066406 220.929688 969.050781 220.992188 C 969.03125 221.097656 969.007812 221.203125 968.988281 221.308594 C 968.976562 221.382812 968.972656 221.460938 968.964844 221.535156 C 968.953125 221.628906 968.941406 221.722656 968.9375 221.816406 C 968.933594 221.890625 968.933594 221.960938 968.933594 222.035156 C 968.933594 222.132812 968.929688 222.230469 968.933594 222.328125 C 968.9375 222.386719 968.945312 222.445312 968.949219 222.507812 C 968.957031 222.617188 968.964844 222.726562 968.980469 222.835938 C 968.984375 222.875 968.996094 222.914062 969 222.953125 C 969.023438 223.082031 969.046875 223.210938 969.074219 223.339844 C 969.078125 223.355469 969.085938 223.371094 969.089844 223.390625 C 969.371094 224.511719 970.015625 225.550781 971.003906 226.308594 C 972.703125 227.601562 1012.992188 257.921875 1050.464844 247.582031 C 1051.492188 247.300781 1052.507812 246.988281 1053.511719 246.648438 C 1069.894531 241.117188 1082.824219 228.25 1092.03125 208.332031 C 1093.308594 210.640625 1094.542969 212.964844 1095.691406 215.3125 C 1097.703125 219.273438 1099.476562 223.28125 1101.160156 227.179688 C 1102.796875 231.09375 1104.308594 234.914062 1105.621094 238.585938 C 1106.476562 240.910156 1107.238281 243.164062 1107.949219 245.339844 C 1096.554688 250.664062 1086.542969 258.792969 1079.328125 268.632812 C 1064.90625 259.1875 1045.328125 257.707031 1024.597656 264.710938 C 1008.324219 270.207031 996.519531 280.597656 990.457031 294.757812 C 984.824219 307.914062 984.644531 323.804688 989.949219 339.507812 C 999.3125 367.230469 1022.707031 383.148438 1048.820312 381.433594 C 1045.757812 394.066406 1045.992188 407.175781 1049.59375 419.101562 C 1054.226562 434.441406 1064.125 446.472656 1077.460938 452.980469 C 1087.980469 458.109375 1099.382812 460.089844 1110.5625 458.886719 C 1110.632812 459.890625 1110.71875 460.898438 1110.839844 461.90625 C 1112.835938 478.945312 1120.824219 495.269531 1132.753906 506.695312 C 1145.457031 518.859375 1161.265625 524.523438 1177.265625 522.648438 C 1181.65625 522.136719 1185.914062 521.175781 1189.984375 519.800781 C 1200.96875 516.089844 1210.589844 509.351562 1217.808594 500.15625 C 1227.835938 487.382812 1232.261719 471.003906 1230.269531 454.03125 C 1228.910156 442.410156 1224.996094 431.625 1218.890625 422.488281 C 1230.285156 414.398438 1238.433594 402.871094 1242.097656 389.449219 C 1246.371094 373.789062 1244.082031 356.976562 1235.652344 342.113281 C 1232.597656 336.726562 1228.996094 331.863281 1224.90625 327.554688 C 1226.933594 327.0625 1228.9375 326.496094 1230.902344 325.832031 C 1256.753906 317.097656 1272.984375 295.085938 1272.246094 269.75 C 1271.769531 253.191406 1265.757812 238.050781 1255.320312 227.113281 Z M 1109.160156 143.019531 C 1127.453125 123.027344 1161.371094 121.722656 1174.074219 121.988281 C 1173.308594 134.671875 1169.253906 168.375 1147.84375 184.984375 C 1135.335938 194.691406 1118.519531 197.132812 1097.839844 192.273438 C 1094.675781 171.261719 1098.46875 154.699219 1109.160156 143.019531 Z M 1047.691406 237.386719 C 1021.574219 244.613281 992.140625 227.710938 981.515625 220.742188 C 988.898438 210.398438 1010.226562 183.996094 1037.191406 181.289062 C 1052.945312 179.707031 1068.492188 186.5625 1083.441406 201.664062 C 1074.964844 221.148438 1062.945312 233.164062 1047.691406 237.386719 Z M 1148.851562 251.640625 C 1146.597656 257.746094 1145.46875 264.210938 1145.660156 270.820312 C 1146.136719 287.175781 1152.835938 302.21875 1164.523438 313.179688 C 1168.269531 316.691406 1172.425781 319.675781 1176.898438 322.101562 C 1170.246094 333.585938 1158.796875 342.675781 1144.761719 347.417969 C 1127.660156 353.195312 1110.140625 350.519531 1096.691406 340.074219 C 1088.992188 334.097656 1083.226562 325.925781 1080.023438 316.4375 C 1075.941406 304.359375 1077.757812 291.035156 1085.136719 278.921875 C 1091.109375 269.09375 1100.3125 260.867188 1111.066406 255.550781 C 1112.09375 259.222656 1112.886719 262.390625 1113.46875 264.875 C 1113.910156 266.804688 1114.242188 268.324219 1114.445312 269.355469 C 1114.640625 270.367188 1114.746094 270.90625 1114.746094 270.90625 L 1114.769531 271.015625 C 1115.058594 272.496094 1116.472656 273.492188 1117.972656 273.253906 C 1119.507812 273.007812 1120.558594 271.566406 1120.3125 270.03125 C 1120.3125 270.03125 1120.21875 269.4375 1120.042969 268.328125 C 1119.863281 267.234375 1119.574219 265.652344 1119.183594 263.644531 C 1118.628906 260.859375 1117.847656 257.246094 1116.804688 253.050781 C 1117.542969 252.769531 1118.28125 252.496094 1119.03125 252.242188 C 1129.273438 248.78125 1139.480469 248.597656 1148.851562 251.640625 Z M 999.960938 336.125 C 990.394531 307.804688 1001.394531 283.703125 1027.980469 274.722656 C 1045.667969 268.746094 1062.066406 269.867188 1073.765625 277.652344 C 1066.753906 291.339844 1065.390625 306.148438 1070.011719 319.820312 C 1073.421875 329.914062 1079.246094 338.785156 1086.972656 345.710938 C 1082.800781 354.007812 1075.171875 363.574219 1061.402344 368.226562 C 1034.664062 377.257812 1009.398438 364.058594 999.960938 336.125 Z M 1060.300781 379.558594 C 1061.792969 379.171875 1063.285156 378.742188 1064.785156 378.238281 C 1078.015625 373.765625 1088.746094 364.597656 1095.539062 352.113281 C 1103.347656 356.941406 1112.027344 359.832031 1121.074219 360.703125 C 1119.730469 372.546875 1122.304688 384.554688 1128.675781 395.78125 C 1133.914062 405.015625 1141.082031 413.09375 1149.570312 419.355469 C 1136.691406 445.59375 1107.707031 455.972656 1082.097656 443.484375 C 1060.964844 433.171875 1051.871094 406.035156 1060.300781 379.558594 Z M 1219.777344 455.261719 C 1221.441406 469.441406 1217.789062 483.066406 1209.5 493.628906 C 1201.355469 504 1189.472656 510.582031 1176.039062 512.152344 C 1150.015625 515.203125 1124.964844 491.628906 1121.335938 460.667969 C 1121.183594 459.378906 1121.078125 458.085938 1121.019531 456.800781 C 1121.757812 456.582031 1122.496094 456.359375 1123.230469 456.113281 C 1123.398438 456.054688 1123.570312 455.996094 1123.738281 455.9375 C 1138.679688 450.742188 1150.984375 439.78125 1158.539062 425.011719 C 1173.695312 433.109375 1190.089844 434.816406 1204.589844 429.914062 C 1206.34375 429.320312 1208.066406 428.621094 1209.761719 427.835938 C 1215.140625 435.691406 1218.585938 445.082031 1219.777344 455.261719 Z M 1226.464844 347.324219 C 1233.507812 359.742188 1235.4375 373.714844 1231.902344 386.667969 C 1228.433594 399.390625 1220.039062 410.070312 1208.273438 416.742188 C 1193.761719 424.964844 1175.367188 423.597656 1159.066406 413.078125 C 1150.355469 407.449219 1143.027344 399.664062 1137.867188 390.566406 C 1132.429688 380.980469 1130.332031 370.769531 1131.703125 360.804688 C 1137.160156 360.390625 1142.671875 359.277344 1148.144531 357.429688 C 1165.035156 351.722656 1178.800781 340.519531 1186.636719 326.316406 C 1193.777344 328.710938 1201.449219 329.863281 1209.378906 329.632812 C 1210.089844 329.613281 1210.792969 329.574219 1211.5 329.535156 C 1217.445312 334.335938 1222.480469 340.300781 1226.464844 347.324219 Z M 1261.6875 270.054688 C 1262.285156 290.640625 1248.875 308.605469 1227.523438 315.816406 C 1221.6875 317.789062 1215.476562 318.882812 1209.070312 319.070312 C 1179.773438 319.921875 1157.050781 299.046875 1156.222656 270.511719 C 1155.636719 250.34375 1170.535156 231.628906 1193.292969 223.941406 C 1199.441406 221.863281 1205.832031 220.714844 1212.292969 220.527344 C 1226.386719 220.117188 1238.625 224.917969 1247.675781 234.40625 C 1256.304688 243.453125 1261.28125 256.113281 1261.6875 270.054688 Z M 1261.6875 270.054688 " fill-opacity="1" fill-rule="nonzero"/></g></g></g><g clip-path="url(#899895c39e)"><g clip-path="url(#e96f251aee)"><g clip-path="url(#cd11c4411b)"><path fill="#8f74c4" d="M 301.125 410.640625 C 284.117188 410.640625 267.617188 413.96875 252.082031 420.53125 C 237.082031 426.871094 223.617188 435.945312 212.054688 447.507812 C 200.496094 459.066406 191.421875 472.53125 185.082031 487.53125 C 178.519531 503.066406 175.191406 519.566406 175.191406 536.574219 C 175.191406 542.261719 179.804688 546.875 185.492188 546.875 C 191.183594 546.875 195.796875 542.261719 195.796875 536.574219 C 195.796875 478.496094 243.046875 431.246094 301.125 431.246094 C 303.96875 431.246094 306.542969 430.089844 308.410156 428.226562 C 310.273438 426.363281 311.425781 423.785156 311.425781 420.941406 C 311.425781 415.253906 306.816406 410.640625 301.125 410.640625 Z M 301.125 410.640625 " fill-opacity="1" fill-rule="nonzero"/></g></g></g><g clip-path="url(#e418829f05)"><g clip-path="url(#d49edcdd20)"><g clip-path="url(#0cc6aa6e03)"><path fill="#8f74c4" d="M 238.558594 474.039062 C 221.695312 490.90625 212.40625 513.34375 212.40625 537.222656 C 212.40625 542.601562 216.765625 546.964844 222.144531 546.964844 C 227.523438 546.964844 231.882812 542.601562 231.882812 537.222656 C 231.882812 498.707031 263.222656 467.367188 301.738281 467.371094 C 304.425781 467.371094 306.863281 466.28125 308.625 464.519531 C 310.386719 462.753906 311.476562 460.320312 311.476562 457.628906 C 311.476562 452.25 307.117188 447.890625 301.738281 447.890625 C 277.859375 447.890625 255.417969 457.179688 238.554688 474.042969 Z M 238.558594 474.039062 " fill-opacity="1" fill-rule="nonzero"/></g></g></g><g clip-path="url(#fcc5f93914)"><g clip-path="url(#f00ac28429)"><g clip-path="url(#df1c5d70be)"><path fill="#8f74c4" d="M 263.417969 498.898438 C 253.164062 509.152344 247.515625 522.792969 247.515625 537.3125 C 247.515625 542.660156 251.851562 547 257.203125 547 C 262.554688 547 266.894531 542.660156 266.894531 537.3125 C 266.894531 518.046875 282.566406 502.375 301.828125 502.375 C 304.503906 502.375 306.925781 501.289062 308.679688 499.535156 C 310.433594 497.785156 311.519531 495.359375 311.519531 492.6875 C 311.519531 487.335938 307.179688 482.996094 301.828125 482.996094 C 287.3125 482.996094 273.671875 488.644531 263.417969 498.898438 Z M 263.417969 498.898438 " fill-opacity="1" fill-rule="nonzero"/></g></g></g><g clip-path="url(#7415dc547a)"><path fill="#8f74c4" d="M 445.5 526.867188 L 414.246094 526.867188 L 403.316406 506.664062 C 402.710938 505.542969 401.964844 504.519531 401.082031 503.601562 C 400.203125 502.679688 399.214844 501.890625 398.117188 501.238281 C 397.023438 500.582031 395.863281 500.082031 394.636719 499.742188 C 393.40625 499.398438 392.15625 499.222656 390.878906 499.21875 L 354.597656 499.21875 C 353.300781 499.222656 352.027344 499.398438 350.777344 499.746094 C 349.53125 500.097656 348.351562 500.609375 347.242188 501.285156 C 346.132812 501.957031 345.136719 502.765625 344.25 503.714844 C 343.363281 504.660156 342.617188 505.707031 342.019531 506.859375 L 331.605469 526.867188 L 324.675781 526.867188 C 324.664062 526.582031 324.625 526.300781 324.5625 526.019531 C 324.496094 525.742188 324.40625 525.472656 324.289062 525.214844 C 324.171875 524.953125 324.03125 524.707031 323.863281 524.472656 C 323.699219 524.238281 323.515625 524.023438 323.308594 523.828125 C 323.101562 523.628906 322.878906 523.453125 322.640625 523.296875 C 322.402344 523.140625 322.148438 523.011719 321.882812 522.90625 C 321.617188 522.800781 321.347656 522.71875 321.066406 522.664062 C 320.785156 522.609375 320.503906 522.582031 320.21875 522.582031 L 317.816406 522.582031 C 317.617188 522.082031 317.292969 521.683594 316.847656 521.378906 C 316.398438 521.078125 315.90625 520.929688 315.367188 520.929688 L 308.84375 520.929688 C 308.304688 520.929688 307.8125 521.082031 307.367188 521.382812 C 306.921875 521.683594 306.597656 522.085938 306.394531 522.582031 L 304.066406 522.582031 C 303.78125 522.582031 303.5 522.609375 303.21875 522.664062 C 302.9375 522.71875 302.667969 522.800781 302.402344 522.90625 C 302.136719 523.011719 301.886719 523.144531 301.648438 523.296875 C 301.40625 523.453125 301.183594 523.628906 300.980469 523.828125 C 300.773438 524.027344 300.589844 524.242188 300.425781 524.472656 C 300.261719 524.707031 300.121094 524.953125 300.007812 525.214844 C 299.890625 525.476562 299.800781 525.746094 299.734375 526.023438 C 299.671875 526.300781 299.632812 526.582031 299.625 526.867188 C 298.582031 526.878906 297.550781 526.988281 296.527344 527.203125 C 295.507812 527.417969 294.519531 527.726562 293.558594 528.132812 C 292.597656 528.539062 291.6875 529.035156 290.824219 529.621094 C 289.960938 530.207031 289.164062 530.871094 288.429688 531.613281 C 287.699219 532.351562 287.042969 533.160156 286.46875 534.027344 C 285.890625 534.898438 285.40625 535.8125 285.011719 536.777344 C 284.613281 537.742188 284.316406 538.734375 284.113281 539.757812 C 283.910156 540.78125 283.808594 541.8125 283.808594 542.855469 L 283.808594 612.292969 C 283.808594 612.816406 283.835938 613.339844 283.886719 613.863281 C 283.9375 614.382812 284.015625 614.898438 284.117188 615.414062 C 284.21875 615.925781 284.347656 616.433594 284.5 616.9375 C 284.652344 617.4375 284.828125 617.929688 285.027344 618.414062 C 285.226562 618.898438 285.453125 619.371094 285.699219 619.832031 C 285.945312 620.292969 286.214844 620.742188 286.503906 621.179688 C 286.796875 621.613281 287.109375 622.035156 287.441406 622.4375 C 287.773438 622.84375 288.125 623.230469 288.492188 623.601562 C 288.863281 623.972656 289.25 624.324219 289.65625 624.65625 C 290.0625 624.988281 290.480469 625.300781 290.917969 625.589844 C 291.351562 625.882812 291.800781 626.148438 292.261719 626.398438 C 292.726562 626.644531 293.199219 626.867188 293.683594 627.066406 C 294.164062 627.269531 294.660156 627.445312 295.160156 627.597656 C 295.660156 627.75 296.167969 627.875 296.683594 627.976562 C 297.195312 628.082031 297.710938 628.15625 298.234375 628.207031 C 298.753906 628.257812 299.277344 628.285156 299.800781 628.285156 L 445.5 628.285156 C 446.023438 628.285156 446.546875 628.257812 447.066406 628.207031 C 447.585938 628.15625 448.105469 628.082031 448.617188 627.976562 C 449.132812 627.875 449.640625 627.75 450.140625 627.597656 C 450.640625 627.445312 451.132812 627.269531 451.617188 627.066406 C 452.101562 626.867188 452.574219 626.644531 453.035156 626.398438 C 453.5 626.148438 453.949219 625.882812 454.382812 625.589844 C 454.820312 625.300781 455.238281 624.988281 455.644531 624.65625 C 456.046875 624.324219 456.4375 623.972656 456.804688 623.601562 C 457.175781 623.230469 457.527344 622.84375 457.859375 622.4375 C 458.191406 622.035156 458.503906 621.613281 458.796875 621.179688 C 459.085938 620.742188 459.355469 620.292969 459.601562 619.832031 C 459.847656 619.371094 460.074219 618.898438 460.273438 618.414062 C 460.472656 617.929688 460.648438 617.4375 460.800781 616.9375 C 460.953125 616.433594 461.082031 615.925781 461.183594 615.414062 C 461.285156 614.898438 461.363281 614.382812 461.414062 613.863281 C 461.464844 613.339844 461.488281 612.816406 461.488281 612.292969 L 461.488281 542.769531 C 461.484375 541.722656 461.375 540.6875 461.167969 539.660156 C 460.957031 538.636719 460.652344 537.640625 460.246094 536.675781 C 459.84375 535.710938 459.347656 534.792969 458.765625 533.925781 C 458.179688 533.058594 457.515625 532.257812 456.773438 531.519531 C 456.03125 530.78125 455.226562 530.121094 454.355469 529.542969 C 453.484375 528.960938 452.566406 528.472656 451.597656 528.074219 C 450.628906 527.675781 449.632812 527.375 448.609375 527.171875 C 447.582031 526.96875 446.546875 526.867188 445.5 526.867188 Z M 372.648438 615.707031 C 371.226562 615.707031 369.808594 615.636719 368.390625 615.5 C 366.976562 615.359375 365.570312 615.152344 364.171875 614.875 C 362.777344 614.597656 361.398438 614.253906 360.039062 613.839844 C 358.675781 613.425781 357.335938 612.949219 356.023438 612.40625 C 354.707031 611.859375 353.421875 611.253906 352.167969 610.582031 C 350.914062 609.914062 349.691406 609.183594 348.511719 608.394531 C 347.328125 607.601562 346.183594 606.757812 345.085938 605.855469 C 343.984375 604.953125 342.929688 603.996094 341.925781 602.992188 C 340.917969 601.984375 339.964844 600.933594 339.058594 599.832031 C 338.15625 598.734375 337.308594 597.59375 336.519531 596.410156 C 335.726562 595.226562 334.996094 594.007812 334.324219 592.753906 C 333.65625 591.5 333.046875 590.214844 332.5 588.898438 C 331.957031 587.585938 331.476562 586.246094 331.0625 584.886719 C 330.652344 583.523438 330.304688 582.144531 330.027344 580.75 C 329.75 579.355469 329.539062 577.949219 329.398438 576.535156 C 329.261719 575.117188 329.191406 573.699219 329.191406 572.273438 C 329.1875 570.851562 329.257812 569.433594 329.398438 568.015625 C 329.535156 566.601562 329.746094 565.195312 330.023438 563.796875 C 330.300781 562.402344 330.644531 561.023438 331.058594 559.664062 C 331.46875 558.300781 331.949219 556.960938 332.492188 555.648438 C 333.035156 554.332031 333.644531 553.046875 334.316406 551.792969 C 334.984375 550.539062 335.714844 549.320312 336.503906 548.136719 C 337.296875 546.953125 338.140625 545.808594 339.042969 544.710938 C 339.949219 543.609375 340.902344 542.558594 341.90625 541.550781 C 342.914062 540.542969 343.964844 539.589844 345.066406 538.6875 C 346.164062 537.785156 347.308594 536.9375 348.488281 536.144531 C 349.671875 535.355469 350.890625 534.625 352.148438 533.953125 C 353.402344 533.28125 354.6875 532.675781 356 532.128906 C 357.316406 531.585938 358.652344 531.105469 360.015625 530.691406 C 361.375 530.28125 362.753906 529.933594 364.152344 529.65625 C 365.546875 529.378906 366.953125 529.167969 368.367188 529.03125 C 369.785156 528.890625 371.203125 528.820312 372.625 528.820312 C 374.050781 528.820312 375.46875 528.890625 376.886719 529.027344 C 378.300781 529.167969 379.707031 529.375 381.101562 529.652344 C 382.5 529.929688 383.875 530.277344 385.238281 530.691406 C 386.601562 531.101562 387.9375 531.582031 389.253906 532.125 C 390.566406 532.667969 391.851562 533.277344 393.109375 533.949219 C 394.363281 534.617188 395.582031 535.347656 396.765625 536.140625 C 397.949219 536.929688 399.089844 537.777344 400.191406 538.679688 C 401.289062 539.582031 402.34375 540.535156 403.347656 541.542969 C 404.355469 542.546875 405.308594 543.601562 406.210938 544.703125 C 407.113281 545.800781 407.960938 546.941406 408.753906 548.125 C 409.542969 549.308594 410.273438 550.527344 410.945312 551.78125 C 411.617188 553.039062 412.222656 554.320312 412.769531 555.636719 C 413.3125 556.953125 413.789062 558.289062 414.203125 559.652344 C 414.617188 561.011719 414.960938 562.390625 415.238281 563.785156 C 415.519531 565.183594 415.726562 566.589844 415.867188 568.003906 C 416.003906 569.421875 416.074219 570.839844 416.074219 572.261719 C 416.074219 573.683594 416.003906 575.105469 415.867188 576.519531 C 415.726562 577.933594 415.519531 579.339844 415.242188 580.734375 C 414.964844 582.132812 414.617188 583.507812 414.207031 584.871094 C 413.792969 586.230469 413.3125 587.570312 412.769531 588.882812 C 412.226562 590.199219 411.617188 591.480469 410.949219 592.738281 C 410.277344 593.992188 409.546875 595.210938 408.757812 596.394531 C 407.96875 597.574219 407.121094 598.71875 406.21875 599.816406 C 405.316406 600.917969 404.363281 601.96875 403.355469 602.976562 C 402.351562 603.980469 401.300781 604.9375 400.199219 605.839844 C 399.101562 606.742188 397.960938 607.585938 396.777344 608.378906 C 395.59375 609.167969 394.375 609.898438 393.121094 610.570312 C 391.867188 611.242188 390.582031 611.847656 389.269531 612.394531 C 387.957031 612.9375 386.617188 613.417969 385.257812 613.832031 C 383.894531 614.246094 382.519531 614.589844 381.121094 614.867188 C 379.726562 615.144531 378.324219 615.355469 376.90625 615.496094 C 375.492188 615.632812 374.074219 615.703125 372.648438 615.707031 Z M 445.035156 551.867188 C 444.558594 551.867188 444.089844 551.820312 443.621094 551.730469 C 443.152344 551.636719 442.699219 551.5 442.257812 551.320312 C 441.816406 551.136719 441.398438 550.914062 441.003906 550.652344 C 440.605469 550.386719 440.238281 550.085938 439.902344 549.75 C 439.5625 549.414062 439.261719 549.046875 438.996094 548.652344 C 438.730469 548.257812 438.507812 547.839844 438.324219 547.398438 C 438.140625 546.957031 438.003906 546.503906 437.910156 546.039062 C 437.816406 545.570312 437.769531 545.097656 437.769531 544.621094 C 437.769531 544.144531 437.816406 543.671875 437.90625 543.207031 C 438 542.738281 438.136719 542.285156 438.320312 541.84375 C 438.503906 541.402344 438.726562 540.984375 438.992188 540.589844 C 439.253906 540.195312 439.554688 539.828125 439.894531 539.488281 C 440.230469 539.152344 440.597656 538.851562 440.992188 538.585938 C 441.390625 538.324219 441.808594 538.097656 442.246094 537.917969 C 442.6875 537.734375 443.140625 537.597656 443.609375 537.503906 C 444.078125 537.414062 444.546875 537.367188 445.023438 537.367188 C 445.5 537.367188 445.972656 537.414062 446.441406 537.507812 C 446.90625 537.601562 447.363281 537.738281 447.800781 537.921875 C 448.242188 538.105469 448.660156 538.328125 449.054688 538.59375 C 449.449219 538.859375 449.816406 539.160156 450.152344 539.5 C 450.488281 539.835938 450.789062 540.203125 451.054688 540.597656 C 451.316406 540.996094 451.539062 541.414062 451.722656 541.855469 C 451.902344 542.296875 452.039062 542.75 452.132812 543.21875 C 452.222656 543.683594 452.269531 544.15625 452.269531 544.632812 C 452.269531 545.109375 452.222656 545.578125 452.128906 546.042969 C 452.035156 546.511719 451.898438 546.960938 451.71875 547.402344 C 451.535156 547.839844 451.3125 548.257812 451.050781 548.652344 C 450.785156 549.046875 450.484375 549.410156 450.148438 549.746094 C 449.816406 550.082031 449.449219 550.382812 449.054688 550.648438 C 448.660156 550.910156 448.242188 551.132812 447.804688 551.316406 C 447.367188 551.496094 446.914062 551.632812 446.449219 551.726562 C 445.980469 551.820312 445.511719 551.867188 445.035156 551.867188 Z M 445.035156 551.867188 " fill-opacity="1" fill-rule="nonzero"/></g><path fill="#8f74c4" d="M 402.925781 572.261719 C 402.925781 573.253906 402.878906 574.242188 402.78125 575.230469 C 402.683594 576.21875 402.539062 577.195312 402.34375 578.167969 C 402.152344 579.140625 401.910156 580.101562 401.621094 581.050781 C 401.335938 582 401 582.933594 400.621094 583.847656 C 400.242188 584.765625 399.820312 585.660156 399.351562 586.535156 C 398.882812 587.410156 398.375 588.257812 397.824219 589.082031 C 397.273438 589.90625 396.683594 590.703125 396.054688 591.46875 C 395.425781 592.238281 394.761719 592.96875 394.058594 593.671875 C 393.359375 594.371094 392.625 595.039062 391.855469 595.667969 C 391.089844 596.296875 390.296875 596.886719 389.472656 597.4375 C 388.644531 597.988281 387.796875 598.496094 386.921875 598.964844 C 386.046875 599.433594 385.152344 599.855469 384.238281 600.234375 C 383.320312 600.613281 382.386719 600.949219 381.4375 601.234375 C 380.488281 601.523438 379.53125 601.765625 378.558594 601.957031 C 377.585938 602.152344 376.605469 602.296875 375.617188 602.394531 C 374.632812 602.492188 373.640625 602.539062 372.648438 602.539062 C 371.660156 602.539062 370.667969 602.492188 369.683594 602.394531 C 368.695312 602.296875 367.714844 602.152344 366.742188 601.957031 C 365.769531 601.765625 364.808594 601.523438 363.859375 601.234375 C 362.914062 600.949219 361.980469 600.613281 361.0625 600.234375 C 360.148438 599.855469 359.253906 599.433594 358.378906 598.964844 C 357.503906 598.496094 356.652344 597.988281 355.828125 597.4375 C 355.003906 596.886719 354.210938 596.296875 353.441406 595.667969 C 352.675781 595.039062 351.941406 594.371094 351.242188 593.671875 C 350.539062 592.96875 349.875 592.238281 349.246094 591.46875 C 348.617188 590.703125 348.027344 589.90625 347.476562 589.082031 C 346.925781 588.257812 346.414062 587.410156 345.949219 586.535156 C 345.480469 585.660156 345.058594 584.765625 344.679688 583.847656 C 344.296875 582.933594 343.964844 582 343.675781 581.050781 C 343.390625 580.101562 343.148438 579.140625 342.957031 578.167969 C 342.761719 577.195312 342.617188 576.21875 342.519531 575.230469 C 342.421875 574.242188 342.375 573.253906 342.375 572.261719 C 342.375 571.269531 342.421875 570.28125 342.519531 569.296875 C 342.617188 568.308594 342.761719 567.328125 342.957031 566.355469 C 343.148438 565.382812 343.390625 564.421875 343.675781 563.472656 C 343.964844 562.523438 344.296875 561.59375 344.679688 560.675781 C 345.058594 559.761719 345.480469 558.863281 345.949219 557.992188 C 346.414062 557.117188 346.925781 556.265625 347.476562 555.441406 C 348.027344 554.617188 348.617188 553.820312 349.246094 553.054688 C 349.875 552.289062 350.539062 551.554688 351.242188 550.855469 C 351.941406 550.152344 352.675781 549.488281 353.441406 548.859375 C 354.210938 548.230469 355.003906 547.640625 355.828125 547.089844 C 356.652344 546.539062 357.503906 546.027344 358.378906 545.5625 C 359.253906 545.09375 360.148438 544.671875 361.0625 544.289062 C 361.980469 543.910156 362.914062 543.578125 363.859375 543.289062 C 364.808594 543.003906 365.769531 542.761719 366.742188 542.566406 C 367.714844 542.375 368.695312 542.230469 369.683594 542.132812 C 370.667969 542.035156 371.660156 541.984375 372.648438 541.984375 C 373.640625 541.984375 374.632812 542.035156 375.617188 542.132812 C 376.605469 542.230469 377.585938 542.375 378.558594 542.566406 C 379.53125 542.761719 380.488281 543.003906 381.4375 543.289062 C 382.386719 543.578125 383.320312 543.910156 384.238281 544.289062 C 385.152344 544.671875 386.046875 545.09375 386.921875 545.5625 C 387.796875 546.027344 388.644531 546.539062 389.472656 547.089844 C 390.296875 547.640625 391.089844 548.230469 391.855469 548.859375 C 392.625 549.488281 393.359375 550.152344 394.058594 550.855469 C 394.761719 551.554688 395.425781 552.289062 396.054688 553.054688 C 396.683594 553.820312 397.273438 554.617188 397.824219 555.441406 C 398.375 556.265625 398.882812 557.117188 399.351562 557.992188 C 399.820312 558.863281 400.242188 559.761719 400.621094 560.675781 C 401 561.59375 401.335938 562.523438 401.621094 563.472656 C 401.910156 564.421875 402.152344 565.382812 402.34375 566.355469 C 402.539062 567.328125 402.683594 568.308594 402.78125 569.296875 C 402.878906 570.28125 402.925781 571.269531 402.925781 572.261719 Z M 402.925781 572.261719 " fill-opacity="1" fill-rule="nonzero"/><g clip-path="url(#9dbb4cde8c)"><path fill="#ffffff" d="M 456.339844 515.222656 L 417.355469 515.222656 L 416.039062 505.910156 L 415.027344 499.628906 C 414.617188 497.097656 413.277344 495 411.175781 493.25 C 409.023438 491.457031 406.722656 490.515625 404.191406 490.515625 L 340.800781 490.515625 C 338.265625 490.515625 335.9375 491.425781 333.8125 493.25 C 331.683594 495.070312 330.554688 497.210938 330.167969 499.628906 L 329.152344 505.910156 L 327.734375 515.222656 L 288.949219 515.222656 C 283.785156 515.222656 279.632812 519.375 279.632812 524.339844 L 279.632812 627.625 C 279.632812 632.789062 283.785156 636.941406 288.949219 636.941406 L 456.339844 636.941406 C 461.503906 636.941406 465.65625 632.789062 465.65625 627.625 L 465.65625 524.339844 C 465.65625 519.375 461.503906 515.222656 456.339844 515.222656 Z M 454.417969 625.703125 L 290.773438 625.703125 L 290.773438 526.363281 L 327.738281 526.363281 C 333.304688 526.363281 338.117188 522.21875 338.875 516.84375 L 340.191406 507.53125 L 341.203125 501.757812 L 403.988281 501.757812 L 404.898438 507.53125 L 406.316406 516.84375 C 407.132812 522.210938 411.988281 526.363281 417.355469 526.363281 L 454.417969 526.363281 Z M 454.417969 625.703125 " fill-opacity="1" fill-rule="nonzero"/></g><path fill="#ffffff" d="M 436.390625 552.792969 C 441.253906 552.792969 445.304688 548.644531 445.304688 543.78125 C 445.304688 538.820312 441.355469 534.667969 436.390625 534.667969 C 431.429688 534.667969 427.480469 538.820312 427.480469 543.78125 C 427.480469 548.644531 431.53125 552.792969 436.390625 552.792969 Z M 436.390625 552.792969 " fill-opacity="1" fill-rule="nonzero"/><path fill="#ffffff" d="M 372.492188 529.300781 C 361.050781 529.300781 351.128906 533.449219 342.925781 541.652344 C 334.722656 549.855469 330.570312 559.78125 330.570312 571.222656 C 330.570312 582.664062 334.722656 592.589844 342.925781 600.792969 C 351.128906 608.992188 361.050781 612.875 372.492188 613.042969 C 395.179688 613.378906 414.683594 593.707031 414.414062 571.222656 C 414.28125 559.679688 410.265625 549.855469 402.0625 541.652344 C 393.859375 533.449219 384.039062 529.300781 372.492188 529.300781 Z M 394.164062 592.996094 C 388.191406 598.96875 381 601.902344 372.492188 601.902344 C 364.089844 601.902344 356.902344 598.96875 350.925781 592.996094 C 344.949219 587.019531 342.015625 579.726562 342.015625 571.222656 C 342.015625 562.816406 344.949219 555.527344 350.925781 549.550781 C 356.902344 543.578125 364.089844 540.539062 372.492188 540.539062 C 381 540.539062 388.191406 543.578125 394.164062 549.550781 C 400.140625 555.527344 403.175781 562.816406 403.175781 571.222656 C 403.175781 579.726562 400.140625 587.019531 394.164062 592.996094 Z M 394.164062 592.996094 " fill-opacity="1" fill-rule="nonzero"/><g clip-path="url(#4d94a8c6cf)"><path fill="#ffffff" d="M 1298.160156 802.214844 L 141.851562 802.214844 C 141.011719 802.214844 140.179688 802.132812 139.359375 801.96875 C 138.535156 801.804688 137.734375 801.5625 136.960938 801.238281 C 136.183594 800.917969 135.449219 800.523438 134.75 800.058594 C 134.050781 799.59375 133.40625 799.0625 132.8125 798.46875 C 132.21875 797.875 131.691406 797.230469 131.222656 796.53125 C 130.757812 795.835938 130.363281 795.097656 130.042969 794.324219 C 129.722656 793.546875 129.480469 792.746094 129.316406 791.925781 C 129.152344 791.101562 129.070312 790.269531 129.070312 789.429688 L 129.070312 20.578125 C 129.070312 19.738281 129.152344 18.90625 129.316406 18.082031 C 129.480469 17.261719 129.722656 16.460938 130.042969 15.683594 C 130.363281 14.910156 130.757812 14.171875 131.222656 13.476562 C 131.691406 12.777344 132.21875 12.132812 132.8125 11.539062 C 133.40625 10.945312 134.050781 10.414062 134.75 9.949219 C 135.449219 9.484375 136.183594 9.089844 136.960938 8.769531 C 137.734375 8.445312 138.535156 8.203125 139.359375 8.039062 C 140.179688 7.875 141.011719 7.792969 141.851562 7.792969 L 1298.160156 7.792969 C 1299 7.792969 1299.832031 7.875 1300.652344 8.039062 C 1301.476562 8.203125 1302.277344 8.445312 1303.050781 8.769531 C 1303.828125 9.089844 1304.5625 9.484375 1305.261719 9.949219 C 1305.960938 10.414062 1306.605469 10.945312 1307.199219 11.539062 C 1307.792969 12.132812 1308.320312 12.777344 1308.789062 13.476562 C 1309.253906 14.171875 1309.648438 14.910156 1309.96875 15.683594 C 1310.289062 16.460938 1310.53125 17.261719 1310.695312 18.082031 C 1310.859375 18.90625 1310.941406 19.738281 1310.941406 20.578125 L 1310.941406 789.429688 C 1310.941406 790.269531 1310.859375 791.101562 1310.695312 791.925781 C 1310.53125 792.746094 1310.289062 793.546875 1309.96875 794.324219 C 1309.648438 795.097656 1309.253906 795.835938 1308.789062 796.53125 C 1308.320312 797.230469 1307.792969 797.875 1307.199219 798.46875 C 1306.605469 799.0625 1305.960938 799.59375 1305.261719 800.058594 C 1304.5625 800.523438 1303.828125 800.917969 1303.050781 801.238281 C 1302.277344 801.5625 1301.476562 801.804688 1300.652344 801.96875 C 1299.832031 802.132812 1299 802.214844 1298.160156 802.214844 Z M 154.632812 776.648438 L 1285.378906 776.648438 L 1285.378906 33.359375 L 154.632812 33.359375 Z M 154.632812 776.648438 " fill-opacity="1" fill-rule="nonzero"/></g></svg>